<svg width="620" height="754" viewBox="0 0 620 754" fill="none" xmlns="http://www.w3.org/2000/svg">
<g style="mix-blend-mode:multiply" opacity="0.2">
<path d="M620 715.301C620 736.301 481.2 753.301 310 753.301C138.8 753.301 0 736.301 0 715.301C0 694.401 138.8 677.301 310 677.301C481.3 677.301 620 694.401 620 715.301Z" fill="#1C1B1D"/>
</g>
<path d="M39.4 63.9996L558.7 55.9996C558.4 54.3996 558.1 52.5996 558 50.6996C558 49.4996 558 48.0996 558.1 46.5996L35.7 53.9996L39.4 63.9996Z" fill="url(#paint0_linear_23_177)"/>
<path fill-rule="evenodd" clip-rule="evenodd" d="M38.7 65L34.3 53H35.7L559.1 45.5V46.6C558.967 48.1333 558.933 49.4666 559 50.6C559.1 52.3 559.3 54 559.7 55.8L559.9 57L38.7 65ZM37.2 54.9L40.1 62.9L557.6 54.9C557.333 53.5 557.167 52.1 557.1 50.7C557.033 49.7666 557.033 48.7 557.1 47.5L37.2 54.9Z" fill="#0F3969"/>
<path d="M564 10.7007L553.4 14.7007L552 4.00079L540 12.0008L533.4 2.70074L526.7 12.0008L516 2.70074L505.4 10.0008L495.4 2.00079L483.4 9.30078L474.7 1.30078L463.4 12.0008L450.7 4.00079L440 12.7007L428.7 3.30078L416 12.7007L405.4 4.70074L392 14.0008L383.4 6.70074L373.4 14.0008L364 6.70074L356.7 12.7007L349.4 8.00079L335.4 13.3008L328 6.70074L316.7 13.3008L307.4 6.70074L296.7 14.7007L291.4 8.00079L280 16.0008L272 7.30078L262 14.7007L251.4 7.30078L242 15.3008L234 8.00079L222.7 15.3008L214.7 10.0008L202 18.7007L190.7 8.00079L178.7 17.3008L170.7 11.3008L157.4 18.7007L150.7 12.0008L138 18.0008L130 13.3008L120 18.7007L104 12.0008L98 18.7007L88.7 12.0008L76.7 18.0008L69.4 12.7007L60.7 20.0008L50 14.7007L32 21.3008L22.7 18.0008L24.6 23.1008L563 15.5008C563.6 12.5008 564 10.7007 564 10.7007Z" fill="url(#paint1_linear_23_177)"/>
<path fill-rule="evenodd" clip-rule="evenodd" d="M23.9 24.2L21 16.3L32 20.3L50.1 13.6L60.6 18.8L69.3 11.4L76.8 16.8L88.8 10.8L97.9 17.3L103.8 10.8L120 17.6L130.1 12.2L138.1 16.9L150.9 10.8L157.5 17.4L170.8 10.2L178.7 16.1L190.8 6.69995L202.1 17.4L214.7 8.79999L222.7 14.1L234.1 6.69995L242.1 14L251.3 6.09998L262 13.4L272.2 6L280.2 14.7L291.6 6.59998L296.9 13.3L307.4 5.39996L316.8 12.1L328.2 5.39996L335.6 12.2L349.5 6.89996L356.6 11.4L364 5.39996L373.4 12.7L383.4 5.39996L392.1 12.7L405.4 3.39996L416 11.4L428.7 2.09998L440 11.4L450.6 2.79999L463.3 10.7L474.7 0L483.5 8.09998L495.4 0.799988L505.4 8.79999L516.1 1.39996L526.5 10.5L533.4 1L540.3 10.6L552.8 2.29999L554.2 13.3L565.4 9.09998L565 10.9C565 10.9 564.6 12.8 563.9 15.7L563.8 16.5H563L23.9 24.2ZM24.4 19.7L25.3 22.2L31.1 22.1L24.4 19.7ZM50 15.8L33.1 22L201.6 19.6L190.6 9.29999L178.7 18.6L170.6 12.5L157.2 19.9L150.5 13.2L138 19.2L130 14.5L120.1 19.8L104.3 13.2L98.2 20L88.6 13.2L76.6 19.2L69.4 14L60.8 21.2L50 15.8ZM214.8 11.3L202.5 19.7L552.4 14.7L551.3 5.79999L539.9 13.4L533.4 4.39996L526.9 13.5L516 4L505.4 11.3L495.4 3.29999L483.3 10.6L474.8 2.79999L463.6 13.3L450.8 5.29999L440.1 14L428.7 4.69995L416.1 14L405.4 6L392 15.3L383.4 8L373.4 15.3L364.1 8L356.8 14L349.3 9.19995L335.2 14.5L328 8L316.7 14.6L307.4 8L296.6 16.1L291.2 9.39996L280 17.4L272 8.69995L262.1 16L251.5 8.69995L242.1 16.7L234 9.29999L222.8 16.6L214.8 11.3ZM562.7 12.3L556.5 14.7L562.2 14.6C562.4 13.7333 562.567 12.9667 562.7 12.3Z" fill="#0F3969"/>
<path d="M35.7 54L558.1 46.6C558.2 43.4 558.6 39.8 559.1 36L32 43.5L35.7 54Z" fill="url(#paint2_linear_23_177)"/>
<path fill-rule="evenodd" clip-rule="evenodd" d="M35 55L30.5 42.6L31.9 42.5L560.3 35L560.1 36.2C559.5 40.3 559.2 43.8 559.1 46.6L559 47.5L558.1 47.6L35 55ZM33.3 44.5L36.4 52.9L557 45.5C557.133 43.1 557.433 40.2667 557.9 37L33.3 44.5Z" fill="#0F3969"/>
<path d="M28.2 33.1L32 43.5L559.1 36C559.7 32.5 560.3 28.9 560.9 25.5L28.2 33.1Z" fill="url(#paint3_linear_23_177)"/>
<path fill-rule="evenodd" clip-rule="evenodd" d="M31.3 44.6L26.8 32.1H28.2L562.1 24.5L561.9 25.7C561.2 29.5 560.6 33 560.1 36.2L560 37H559.2L31.3 44.6ZM29.6 34.2L32.7 42.6L558.3 35.1C558.7 32.5 559.167 29.6666 559.7 26.6L29.6 34.2Z" fill="#0F3969"/>
<path d="M563 15.5L24.6 23.1L28.2 33.1L560.9 25.5C561.6 21.6 562.4 18.1 563 15.5Z" fill="url(#paint4_linear_23_177)"/>
<path fill-rule="evenodd" clip-rule="evenodd" d="M27.5 34.1L23.2 22.2L24.6 22.1L564.2 14.5L563.9 15.7C563.4 18 562.7 21.6 561.9 25.7L561.7 26.5L27.5 34.1ZM26.1 24.1L28.9 32.1L560.2 24.5C560.8 21.4 561.3 18.6 561.8 16.5L26.1 24.1Z" fill="#0F3969"/>
<g style="mix-blend-mode:multiply">
<path d="M553.4 14.6992L552 3.99927L540 11.9993L533.4 2.69922L526.7 11.9993L521.8 7.69922C496.8 25.5992 437.6 47.9992 297.4 52.6992C133.7 58.0992 72 31.5992 49.5 14.8992L32 21.2993L22.7 17.9993L24.6 23.0992L28.2 33.0992L32 43.4993L35.7 53.9993L39.4 63.9993L558.7 55.9993C558.4 54.3993 558.1 52.5992 558 50.6992C558 49.4992 558 48.0992 558.1 46.5992C558.2 43.3992 558.6 39.7993 559.1 35.9993C559.7 32.4993 560.3 28.8993 560.9 25.4993C561.6 21.5993 562.4 18.0993 563 15.4993C563.6 12.4993 564 10.6992 564 10.6992L553.4 14.6992Z" fill="url(#paint5_linear_23_177)"/>
</g>
<g style="mix-blend-mode:screen" opacity="0.3">
<path d="M161.4 23.3002C161.4 23.3002 313.4 19.3002 369.4 20.0002C425.4 20.7002 353.4 40.7001 268.7 42.7001C184 44.7001 84 26.7002 161.4 23.3002Z" fill="white"/>
</g>
<path d="M573.9 659.701L44.7 653.301L41.1 668.901L580.5 670.301C578.6 666.501 576.4 662.901 573.9 659.701Z" fill="url(#paint6_linear_23_177)"/>
<path fill-rule="evenodd" clip-rule="evenodd" d="M582.1 671.301H580.5L39.9 669.901L43.9 652.301L574.4 658.701L574.7 659.101C577.1 662.201 579.4 665.801 581.4 669.801L582.1 671.301ZM42.3 667.901L578.8 669.301C577.1 666.101 575.3 663.301 573.4 660.701L45.5 654.401L42.3 667.901Z" fill="#0F3969"/>
<path d="M580.5 670.3L41.1 668.9L38.1 681.9L586.2 683.8C584.6 679.2 582.7 674.6 580.5 670.3Z" fill="url(#paint7_linear_23_177)"/>
<path fill-rule="evenodd" clip-rule="evenodd" d="M587.6 684.8H586.2L36.9 682.9L40.3 667.9H41.1L581.1 669.3L581.4 669.8C583.5 673.9 585.4 678.5 587.1 683.5L587.6 684.8ZM39.4 680.8L584.8 682.8C583.3 678.6 581.7 674.7 579.9 671.3L42 669.8L39.4 680.8Z" fill="#0F3969"/>
<path d="M572 657.3C574.7 653.3 573 645.3 573 645.3C505.5 647.8 44.7 640 44.7 640C39.4 646 44.7 653.3 44.7 653.3L573.9 659.7C573.3 658.9 572.7 658.1 572 657.3Z" fill="url(#paint8_linear_23_177)"/>
<path fill-rule="evenodd" clip-rule="evenodd" d="M576 660.7H573.9L44.2 654.3L43.9 653.9C43.8 653.8 38.2 645.9 44 639.3L44.3 639H44.7C48.2 639.1 389 644.8 525.1 644.8C548.1 644.8 564.2 644.7 573 644.3H573.8L574 645.1C574.1 645.5 575.6 652.8 573.3 657.2C573.767 657.8 574.233 658.433 574.7 659.1L576 660.7ZM45.3 652.3L571.9 658.6C571.7 658.4 571.5 658.2 571.3 658L570.8 657.4L571.3 656.7C573.2 653.8 572.6 648.4 572.2 646.3C563.2 646.6 547.4 646.8 525.1 646.8C391.4 646.8 59.8 641.2 45.2 641C41.6 645.5 44.4 650.8 45.3 652.3Z" fill="#0F3969"/>
<path d="M592.5 705.8L33.2 703.4L30.7 714L40 708.7L52.7 716L64 708.7L73.4 716L82 709.3L89.4 718L105.4 711.3L110.7 715.3L124 710.7L129.4 718.7L147.4 710.7L156.7 717.3L170 709.3L180 716.7L196 711.3L203.4 717.3L217.4 711.3L224.7 718.7L238.7 710L247.4 716.7L259.4 712L268.7 718.7L280.7 710.7L290.7 720.7L304 714L317.4 722L332 714L340.7 719.3L348 714L366 719.3L373.4 713.3L390.7 719.3L399.4 712L412 720L427.4 712.7L432.7 719.3L444.7 712L454.7 718L466.7 711.3L480 720L489.4 710.7L506 719.3L518.7 712L528 720.7L540 714L551.4 721.3L556.7 715.3L569.4 722L579.4 714C579.4 714 596 720 594.7 714.7C594.1 712.2 593.3 709.2 592.5 705.8Z" fill="url(#paint9_linear_23_177)"/>
<path fill-rule="evenodd" clip-rule="evenodd" d="M569.5 723.2L556.9 716.6L551.6 722.6L540 715.2L527.9 721.9L518.6 713.2L506.1 720.5L489.6 711.9L480.2 721.3L466.7 712.5L454.7 719.2L444.7 713.2L432.5 720.7L427.1 713.9L412 721.1L399.5 713.2L390.9 720.5L373.6 714.5L366.3 720.4L348.2 715.1L340.8 720.5L332 715.2L317.4 723.2L304 715.1L290.5 721.9L280.6 712L268.7 719.9L259.2 713.1L247.2 717.8L238.6 711.2L224.6 719.9L217.1 712.5L203.2 718.5L195.8 712.5L179.9 717.8L170 710.5L156.7 718.5L147.3 711.8L129 719.9L123.6 711.9L110.5 716.5L105.2 712.5L89.1 719.2L81.9 710.7L73.4 717.3L64 709.9L52.7 717.2L40 709.8L29.2 716L32.4 702.4H33.2L593.3 704.8L594.2 708.3C594.7 710.6 595.2 712.7 595.7 714.4C596 715.5 595.6 716.3 595.3 716.7C594.7 717.5 593.5 717.9 591.8 717.9C587.9 717.9 581.5 715.8 579.6 715.1L569.5 723.2ZM304.1 712.9L317.4 720.9L332 712.9L340.6 718.2L347.8 712.9L365.8 718.3L373.2 712.2L390.5 718.2L399.3 710.8L412.1 718.9L427.6 711.5L432.9 718.1L444.7 710.9L454.7 716.9L466.7 710.2L479.9 718.8L489.2 709.5L506 718.2L518.8 710.8L528.2 719.5L540.1 712.9L551.2 720.1L556.5 714.1L569.2 720.9L579.2 712.9L579.7 713.1C579.8 713.1 587.6 715.9 591.8 715.9C593.3 715.9 593.6 715.6 593.7 715.5C593.8 715.4 593.8 715.1 593.7 714.9C593.3 713.2 592.8 711.1 592.2 708.8L591.7 706.8L33.9 704.4L32.2 712L40 707.6L52.7 714.9L64.1 707.5L73.4 714.8L82.2 708L89.6 716.8L105.5 710.2L110.9 714.3L124.4 709.5L129.7 717.5L147.5 709.6L156.7 716.2L170.1 708.2L180.2 715.6L196.2 710.3L203.5 716.2L217.6 710.2L224.8 717.4L238.7 708.8L247.5 715.6L259.5 710.9L268.7 717.5L280.8 709.4L290.9 719.5L304.1 712.9Z" fill="#0F3969"/>
<path d="M586.2 683.8L38.1 681.9L35.8 691.9L589.8 695.3C588.8 691.6 587.6 687.7 586.2 683.8Z" fill="url(#paint10_linear_23_177)"/>
<path fill-rule="evenodd" clip-rule="evenodd" d="M591.1 696.3H589.8L34.6 692.9L37.3 680.9H38.1L586.9 682.8L587.1 683.5C588.4 687 589.6 690.9 590.8 695L591.1 696.3ZM37 690.9L588.4 694.3C587.5 691 586.5 687.8 585.4 684.8L38.9 682.9L37 690.9Z" fill="#0F3969"/>
<path d="M589.8 695.3L35.8 691.9L33.2 703.4L592.5 705.8C591.7 702.6 590.8 699 589.8 695.3Z" fill="url(#paint11_linear_23_177)"/>
<path fill-rule="evenodd" clip-rule="evenodd" d="M593.8 706.8H592.5L31.9 704.4L35 690.9H35.8L590.6 694.3L590.8 695C591.9 699 592.8 702.7 593.5 705.5L593.8 706.8ZM34.4 702.4L591.2 704.8C590.6 702.4 589.9 699.4 589 696.4L36.6 693L34.4 702.4Z" fill="#0F3969"/>
<g style="mix-blend-mode:multiply">
<path d="M594.7 714.7C594.1 712.2 593.3 709.2 592.5 705.8C591.7 702.6 590.8 699 589.8 695.3C588.8 691.6 587.6 687.7 586.2 683.8C584.6 679.2 582.7 674.6 580.5 670.3C578.6 666.5 576.4 662.9 573.9 659.7C573.3 658.9 572.7 658.1 572 657.3C574.7 653.3 573 645.3 573 645.3C505.5 647.8 44.7 640 44.7 640C39.4 646 44.7 653.3 44.7 653.3L41.1 668.9L38.1 681.9L35.8 691.9L33.2 703.4L30.7 714L40 708.7L52.7 716L64 708.7L64.6 709.1C90 687.5 150 661.3 292 661.3C497.5 661.3 558.8 677.2 575.1 717.5L579.4 714C579.4 714 596 720 594.7 714.7Z" fill="url(#paint12_linear_23_177)"/>
</g>
<g style="mix-blend-mode:screen" opacity="0.3">
<path d="M183 702.301C183 702.301 320 702.301 416 702.301C512 702.301 429 677.301 332 678.301C235 679.301 113 697.301 183 702.301Z" fill="white"/>
</g>
<path d="M574 340.301C574 269.301 572 137.301 573 112.301C574 87.3008 560 73.3008 560 73.3008L34 80.3008C20 93.3008 34 240.301 35 306.301C36 372.301 39.4 587.301 37.4 609.301C35.4 631.301 36 636.001 44.7 640.001C44.7 640.001 505.5 647.801 573 645.301C578 635.301 577 608.301 576 569.301C575 530.301 574 411.301 574 340.301Z" fill="url(#paint13_linear_23_177)"/>
<path d="M576.9 339.6C576.9 295.8 576.4 252.101 576.1 208.301C575.8 176.101 574.7 143.7 575.9 111.6C576.3 100.8 573.9 90.4005 568.9 81.0005C567.7 78.8005 564.7 72.3005 561.9 72.0005C559.8 71.7005 557.7 72.0005 555.6 72.0005C541.333 72.2005 527.067 72.4005 512.8 72.6005C392.867 74.2005 272.967 75.8005 153.1 77.4005C115.233 77.8672 77.3667 78.3672 39.5 78.9005C37.2 78.9005 34.4 78.6005 32.3 79.7005C26.1 83.1005 26.3 96.9005 25.8 102.6C22.8 139.6 26 177.301 27.9 214.301C31.6 284.301 32.9 354.201 33.8 424.401C34.3 463.101 34.8 501.9 35 540.6C35.1 563.4 36.2 586.6 34.5 609.3C34 617 29.4 641.201 43.5 641.401C45.9667 641.467 48.4667 641.501 51 641.501C67.7333 641.834 84.4667 642.134 101.2 642.401C163.733 643.401 226.267 644.301 288.8 645.101C347.1 645.901 405.3 646.601 463.6 647.001C499.6 647.301 535.8 648 571.9 646.8C573.2 646.7 575.3 646.201 575.9 644.901C579.4 637.301 579.4 628.201 579.6 620.001C580.2 604.101 579.4 588.201 579 572.401C578.5 551.701 578.2 531 578 510.2C577.3 453.3 576.9 396.4 576.9 339.6C576.9 338.2 571.1 339.1 571.1 341.1C571.2 396.3 571.5 451.4 572.1 506.6C572.4 527.3 572.6 548.1 573.1 568.8C573.5 584.6 574.1 600.501 573.9 616.401C573.9 625.901 574.2 636.9 570.2 645.8C571.533 645.134 572.867 644.501 574.2 643.901C528.8 645.601 483.2 644.301 437.8 643.901C367.8 643.301 297.8 642.401 227.9 641.401C174.7 640.667 121.5 639.867 68.3 639.001C59.9 638.801 45.6 642.1 40.8 633.3C35.8 624 40.4 609.3 40.7 598.8C40.9 587.1 40.9 575.501 40.9 563.901C40.8 489.801 39.6 415.8 38.5 341.7C37.4 268.8 30.2 195.901 30.8 123.001C30.9 110.501 30.6 96.8005 34.3 84.7005C34.8 83.3005 35.4 81.8005 36.3 80.6005C35.3 81.9005 31.5 81.8005 33.2 81.7005C34.2667 81.7005 35.3333 81.7005 36.4 81.7005C49.4 81.5005 62.4 81.3338 75.4 81.2005C130.067 80.4671 184.7 79.7339 239.3 79.0005C343.633 77.6005 447.967 76.2005 552.3 74.8005C554.3 74.8005 556.267 74.8005 558.2 74.8005C559.8 74.7005 557 74.1005 557.7 74.7005C560.7 78.1005 563 82.1005 564.9 86.1005C574.2 105.3 569.8 132.601 569.9 153.501C570.1 216.001 571.1 278.6 571.1 341.1C571.1 342.5 576.9 341.5 576.9 339.6Z" fill="#0F3969"/>
<g style="mix-blend-mode:multiply">
<path d="M571.4 658.1C565.6 653.3 561.3 651.8 561.2 651.8L561.9 649.9C562 650 566.6 651.5 572.7 656.6L571.4 658.1Z" fill="#0F3969"/>
</g>
<path d="M39.4 64C33.7 63.7 28 74.3 34 80.3L560 73.3C564 68.9 560.4 64.4 558.7 56L39.4 64Z" fill="url(#paint14_linear_23_177)"/>
<path fill-rule="evenodd" clip-rule="evenodd" d="M33.6 81.3L33.3 81C29.8 77.5 30 72.7 31.4 69.3C33 65.5 36.1 63 39.1 63H39.4L559.5 55L559.7 55.8C560.2 58.2 560.8 60.3 561.4 62.2C562.8 66.8 563.9 70.4 560.8 74L560.5 74.3L33.6 81.3ZM39.1 65C36.9 65 34.5 67.1 33.3 70.1C31.8 73.5 32.3 76.9 34.4 79.3L559.5 72.3C561.6 69.7 560.8 67 559.5 62.8C558.9 61.1 558.3 59.2 557.9 57L39.4 65H39.1Z" fill="#0F3969"/>
<g style="mix-blend-mode:multiply" opacity="0.5">
<path fill-rule="evenodd" clip-rule="evenodd" d="M573 645.301C505.5 647.801 44.7 640.001 44.7 640.001C36 636.001 35.4 631.301 37.4 609.301C39.4 587.301 36 372.301 35 306.301C34 240.301 20 93.3008 34 80.3008L560 73.3008C560 73.3008 574 87.3008 573 112.301C572 137.301 574 269.301 574 340.301C574 411.301 575 530.301 576 569.301C577 608.301 578 635.301 573 645.301ZM556 297.301C554 243.301 480 284.701 536 215.301C577.1 164.501 553.4 96.7008 476 99.3008C354 97.3008 90.7 103.301 90.7 103.301C58.7 103.301 38 151.301 46 245.301C54 339.301 67.4 422.701 85.4 468.701C103.4 514.701 65.4 520.701 62.7 584.701C60.1 646.701 267.6 632.701 440 627.301C568 623.301 550 597.301 556 497.301C562 397.301 558 351.301 556 297.301Z" fill="#8D8D8C"/>
</g>
<g style="mix-blend-mode:screen" opacity="0.3">
<path d="M112 283.3C112 283.3 169.4 315.3 306 293.3C441.8 271.5 423.2 309.2 281.6 360.2C140 411.3 132 427.3 96 357.3C60 287.3 76 267.3 112 283.3Z" fill="white"/>
</g>
<g style="mix-blend-mode:screen" opacity="0.3">
<path d="M122.7 536.7C122.7 536.7 194.7 464.7 352.7 402.7C510.7 340.7 538.7 370.7 540.7 444.7C542.7 518.7 500.2 583.8 363.5 605.2C226.7 626.7 48.7 606.7 122.7 536.7Z" fill="white"/>
</g>
<defs>
<linearGradient id="paint0_linear_23_177" x1="297.522" y1="-23.3255" x2="297.522" y2="55.7456" gradientUnits="userSpaceOnUse">
<stop stop-color="#16559C"/>
<stop offset="0.201" stop-color="#86ACE1"/>
<stop offset="0.566" stop-color="#2079DE"/>
<stop offset="1" stop-color="#16559C"/>
</linearGradient>
<linearGradient id="paint1_linear_23_177" x1="293.812" y1="-23.3252" x2="293.812" y2="55.7468" gradientUnits="userSpaceOnUse">
<stop stop-color="#16559C"/>
<stop offset="0.201" stop-color="#86ACE1"/>
<stop offset="0.566" stop-color="#2079DE"/>
<stop offset="1" stop-color="#16559C"/>
</linearGradient>
<linearGradient id="paint2_linear_23_177" x1="295.855" y1="-23.326" x2="295.855" y2="55.746" gradientUnits="userSpaceOnUse">
<stop stop-color="#16559C"/>
<stop offset="0.201" stop-color="#86ACE1"/>
<stop offset="0.566" stop-color="#2079DE"/>
<stop offset="1" stop-color="#16559C"/>
</linearGradient>
<linearGradient id="paint3_linear_23_177" x1="294.849" y1="-23.326" x2="294.849" y2="55.746" gradientUnits="userSpaceOnUse">
<stop stop-color="#16559C"/>
<stop offset="0.201" stop-color="#86ACE1"/>
<stop offset="0.566" stop-color="#2079DE"/>
<stop offset="1" stop-color="#16559C"/>
</linearGradient>
<linearGradient id="paint4_linear_23_177" x1="294.051" y1="-23.3259" x2="294.051" y2="55.7459" gradientUnits="userSpaceOnUse">
<stop stop-color="#16559C"/>
<stop offset="0.201" stop-color="#86ACE1"/>
<stop offset="0.566" stop-color="#2079DE"/>
<stop offset="1" stop-color="#16559C"/>
</linearGradient>
<linearGradient id="paint5_linear_23_177" x1="296.847" y1="-79.3308" x2="296.847" y2="27.5432" gradientUnits="userSpaceOnUse">
<stop stop-color="#16559C"/>
<stop offset="0.201" stop-color="#86ACE1"/>
<stop offset="0.566" stop-color="#2079DE"/>
<stop offset="1" stop-color="#16559C"/>
</linearGradient>
<linearGradient id="paint6_linear_23_177" x1="310.554" y1="751.338" x2="310.554" y2="667.073" gradientUnits="userSpaceOnUse">
<stop stop-color="#16559C"/>
<stop offset="0.201" stop-color="#86ACE1"/>
<stop offset="0.566" stop-color="#2079DE"/>
<stop offset="1" stop-color="#16559C"/>
</linearGradient>
<linearGradient id="paint7_linear_23_177" x1="311.957" y1="751.336" x2="311.957" y2="667.072" gradientUnits="userSpaceOnUse">
<stop stop-color="#16559C"/>
<stop offset="0.201" stop-color="#86ACE1"/>
<stop offset="0.566" stop-color="#2079DE"/>
<stop offset="1" stop-color="#16559C"/>
</linearGradient>
<linearGradient id="paint8_linear_23_177" x1="307.769" y1="751.336" x2="307.769" y2="667.072" gradientUnits="userSpaceOnUse">
<stop stop-color="#16559C"/>
<stop offset="0.201" stop-color="#86ACE1"/>
<stop offset="0.566" stop-color="#2079DE"/>
<stop offset="1" stop-color="#16559C"/>
</linearGradient>
<linearGradient id="paint9_linear_23_177" x1="312.434" y1="751.336" x2="312.434" y2="667.073" gradientUnits="userSpaceOnUse">
<stop stop-color="#16559C"/>
<stop offset="0.201" stop-color="#86ACE1"/>
<stop offset="0.566" stop-color="#2079DE"/>
<stop offset="1" stop-color="#16559C"/>
</linearGradient>
<linearGradient id="paint10_linear_23_177" x1="312.639" y1="751.336" x2="312.639" y2="667.073" gradientUnits="userSpaceOnUse">
<stop stop-color="#16559C"/>
<stop offset="0.201" stop-color="#86ACE1"/>
<stop offset="0.566" stop-color="#2079DE"/>
<stop offset="1" stop-color="#16559C"/>
</linearGradient>
<linearGradient id="paint11_linear_23_177" x1="312.663" y1="751.337" x2="312.663" y2="667.073" gradientUnits="userSpaceOnUse">
<stop stop-color="#16559C"/>
<stop offset="0.201" stop-color="#86ACE1"/>
<stop offset="0.566" stop-color="#2079DE"/>
<stop offset="1" stop-color="#16559C"/>
</linearGradient>
<linearGradient id="paint12_linear_23_177" x1="282.813" y1="834.148" x2="295.822" y2="731.526" gradientUnits="userSpaceOnUse">
<stop stop-color="#16559C"/>
<stop offset="0.201" stop-color="#86ACE1"/>
<stop offset="0.566" stop-color="#2079DE"/>
<stop offset="1" stop-color="#16559C"/>
</linearGradient>
<linearGradient id="paint13_linear_23_177" x1="46.706" y1="73.3388" x2="559.267" y2="73.3388" gradientUnits="userSpaceOnUse">
<stop stop-color="#16559C"/>
<stop offset="0.201" stop-color="#86ACE1"/>
<stop offset="0.566" stop-color="#2079DE"/>
<stop offset="1" stop-color="#16559C"/>
</linearGradient>
<linearGradient id="paint14_linear_23_177" x1="297.2" y1="-23.326" x2="297.2" y2="55.745" gradientUnits="userSpaceOnUse">
<stop stop-color="#16559C"/>
<stop offset="0.201" stop-color="#86ACE1"/>
<stop offset="0.566" stop-color="#2079DE"/>
<stop offset="1" stop-color="#16559C"/>
</linearGradient>
</defs>
</svg>
