<svg width="620" height="754" viewBox="0 0 620 754" fill="none" xmlns="http://www.w3.org/2000/svg">
<g style="mix-blend-mode:multiply" opacity="0.2">
<path d="M620 715.301C620 736.301 481.2 753.301 310 753.301C138.8 753.301 0 736.301 0 715.301C0 694.401 138.8 677.301 310 677.301C481.2 677.301 620 694.401 620 715.301Z" fill="#1B1D1B"/>
</g>
<path d="M39.3 63.9996L558.7 55.9996C558.3 54.3996 558.1 52.5996 558 50.6996C557.9 49.4996 557.9 48.0996 558 46.5996L35.7 53.9996L39.3 63.9996Z" fill="url(#paint0_linear_23_5)"/>
<path fill-rule="evenodd" clip-rule="evenodd" d="M38.6 65L34.3 53H35.7L559 45.5V46.6C558.933 48.1333 558.933 49.4667 559 50.6C559.1 52.3 559.3 54 559.6 55.8L559.9 57L38.6 65ZM37.0001 54.9L40.0001 62.9L557.4 54.9C557.133 53.5 556.967 52.1 556.9 50.7C556.9 49.7667 556.9 48.7 556.9 47.5L37.0001 54.9Z" fill="#786600"/>
<path d="M564 10.7008L553.3 14.7008L552 4.00078L540 12.0008L533.3 2.70078L526.6 12.0008L516 2.70078L505.3 10.0008L495.3 2.00078L483.3 9.30078L474.6 1.30078L463.3 12.0008L450.6 4.00078L440 12.7008L428.6 3.30078L416 12.7008L405.3 4.70078L392 14.0008L383.3 6.70078L373.3 14.0008L364 6.70078L356.6 12.7008L349.3 8.00078L335.3 13.3008L328 6.70078L316.6 13.3008L307.3 6.70078L296.6 14.7008L291.3 8.00078L280 16.0008L272 7.30078L262 14.7008L251.3 7.30078L242 15.3008L234 8.00078L222.6 15.3008L214.6 10.0008L202 18.7008L190.6 8.00078L178.6 17.3008L170.6 11.3008L157.3 18.7008L150.6 12.0008L138 18.0008L130 13.3008L120 18.7008L104 12.0008L98 18.7008L88.6 12.0008L76.6 18.0008L69.3 12.7008L60.6 20.0008L50 14.7008L32 21.3008L22.6 18.0008L24.5 23.1008L562.9 15.5008C563.5 12.5008 564 10.7008 564 10.7008Z" fill="url(#paint1_linear_23_5)"/>
<path fill-rule="evenodd" clip-rule="evenodd" d="M23.8 24.2L21 16.3L32 20.3L50 13.6L60.5 18.8L69.3 11.4L76.7 16.8L88.7 10.8L97.8 17.3L103.7 10.8L119.9 17.6L130 12.2L138 16.9L150.8 10.8L157.5 17.4L170.7 10.2L178.6 16.1L190.7 6.7L202.1 17.4L214.6 8.8L222.6 14.1L234.1 6.7L242 14L251.2 6.1L262 13.4L272.1 6L280.1 14.7L291.5 6.6L296.8 13.3L307.3 5.4L316.7 12.1L328.1 5.4L335.5 12.2L349.4 6.9L356.6 11.4L364 5.4L373.3 12.7L383.4 5.4L392 12.7L405.3 3.4L416 11.4L428.7 2.1L440 11.4L450.6 2.8L463.2 10.7L474.6 0L483.4 8.1L495.4 0.800001L505.4 8.8L516 1.4L526.5 10.5L533.3 1L540.2 10.6L552.8 2.3L554.1 13.3L565.4 9.1L564.9 10.9C564.9 10.9 564.5 12.8 563.9 15.7L563.7 16.5H562.9L23.8 24.2ZM24.3 19.7L25.2 22.2L31 22.1L24.3 19.7ZM49.9 15.8L33 22L201.5 19.6L190.6 9.3L178.6 18.6L170.6 12.5L157.1 19.9L150.4 13.2L137.9 19.2L129.9 14.5L120 19.8L104.2 13.2L98.1 20L88.5 13.2L76.5 19.2L69.3 14L60.8 21.2L49.9 15.8ZM214.6 11.3L202.3 19.7L552.3 14.7L551.1 5.8L539.7 13.4L533.3 4.4L526.8 13.5L515.9 4L505.2 11.3L495.2 3.3L483.1 10.6L474.6 2.8L463.4 13.3L450.7 5.3L439.9 14L428.6 4.7L415.9 14L405.3 6L391.9 15.3L383.2 8L373.3 15.3L364 8L356.7 14L349.2 9.2L335.1 14.5L327.8 8L316.6 14.6L307.3 8L296.4 16.1L291.1 9.4L279.8 17.4L271.8 8.7L262 16L251.3 8.7L241.9 16.7L233.8 9.3L222.6 16.6L214.6 11.3ZM562.5 12.3L556.4 14.7L562 14.6C562.2 13.7333 562.367 12.9667 562.5 12.3Z" fill="#786600"/>
<path d="M35.6999 54L558 46.6C558.1 43.4 558.5 39.8 559.1 36L31.8999 43.5L35.6999 54Z" fill="url(#paint2_linear_23_5)"/>
<path fill-rule="evenodd" clip-rule="evenodd" d="M35 55L30.5 42.6L31.9 42.5L560.2 35L560.1 36.2C559.5 40.3 559.1 43.8 559 46.6L558.9 47.5L558 47.6L35 55ZM33.3 44.5L36.4 52.9L557.1 45.5C557.233 43.1 557.5 40.2667 557.9 37L33.3 44.5Z" fill="#786600"/>
<path d="M28.1 33.1L31.9 43.5L559.1 36C559.6 32.5 560.2 28.9 560.8 25.5L28.1 33.1Z" fill="url(#paint3_linear_23_5)"/>
<path fill-rule="evenodd" clip-rule="evenodd" d="M31.2 44.6L26.7 32.1H28.1L562.1 24.5L561.8 25.7C561.1 29.5 560.5 33 560.1 36.2L559.9 37H559.1L31.2 44.6ZM29.5 34.2L32.6 42.6L558.2 35.1C558.6 32.5 559.067 29.6667 559.6 26.6L29.5 34.2Z" fill="#786600"/>
<path d="M562.9 15.5L24.5 23.1L28.1 33.1L560.9 25.5C561.6 21.6 562.3 18.1 562.9 15.5Z" fill="url(#paint4_linear_23_5)"/>
<path fill-rule="evenodd" clip-rule="evenodd" d="M27.4 34.1L23.1 22.2L24.5 22.1L564.1 14.5L563.9 15.7C563.4 18 562.6 21.6 561.8 25.7L561.7 26.5L27.4 34.1ZM25.9 24.1L28.8 32.1L560 24.5C560.6 21.4 561.2 18.6 561.6 16.5L25.9 24.1Z" fill="#786600"/>
<g style="mix-blend-mode:multiply">
<path d="M553.3 14.6992L552 3.99922L540 11.9992L533.3 2.69922L526.6 11.9992L521.7 7.69922C496.8 25.5992 437.6 47.9992 297.3 52.6992C133.6 58.0992 71.9 31.5992 49.5 14.8992L32 21.2992L22.6 17.9992L24.5 23.0992L28.1 33.0992L31.9 43.4992L35.7 53.9992L39.3 63.9992L558.7 55.9992C558.3 54.3992 558.1 52.5992 558 50.6992C557.9 49.4992 557.9 48.0992 558 46.5992C558.1 43.3992 558.5 39.7992 559.1 35.9992C559.6 32.4992 560.2 28.8992 560.8 25.4992C561.6 21.5992 562.3 18.0992 562.9 15.4992C563.5 12.4992 564 10.6992 564 10.6992L553.3 14.6992Z" fill="url(#paint5_linear_23_5)"/>
</g>
<g style="mix-blend-mode:screen" opacity="0.3">
<path d="M161.3 23.3002C161.3 23.3002 313.3 19.3002 369.3 20.0002C425.3 20.7002 353.3 40.7002 268.6 42.7002C184 44.7002 83.9999 26.7002 161.3 23.3002Z" fill="white"/>
</g>
<path d="M573.9 659.701L44.6001 653.301L41.1001 668.901L580.5 670.301C578.5 666.501 576.3 662.901 573.9 659.701Z" fill="url(#paint6_linear_23_5)"/>
<path fill-rule="evenodd" clip-rule="evenodd" d="M582.1 671.301H580.4L39.8 669.901L43.9 652.301L574.4 658.701L574.7 659.101C577 662.201 579.3 665.801 581.3 669.801L582.1 671.301ZM42.4 667.901L578.9 669.301C577.2 666.101 575.3 663.301 573.4 660.701L45.5001 654.401L42.4 667.901Z" fill="#786600"/>
<path d="M580.5 670.3L41.1001 668.9L38.1001 681.9L586.1 683.8C584.5 679.2 582.6 674.6 580.5 670.3Z" fill="url(#paint7_linear_23_5)"/>
<path fill-rule="evenodd" clip-rule="evenodd" d="M587.5 684.8H586.1L36.8 682.9L40.3 667.9H41.1L581.1 669.3L581.3 669.8C583.4 673.9 585.3 678.5 587.1 683.5L587.5 684.8ZM39.2 680.8L584.6 682.8C583.1 678.6 581.5 674.7 579.8 671.3L41.8 669.8L39.2 680.8Z" fill="#786600"/>
<path d="M572 657.3C574.6 653.3 573 645.3 573 645.3C505.5 647.8 44.5999 640 44.5999 640C39.2999 646 44.5999 653.3 44.5999 653.3L573.9 659.7C573.2 658.9 572.6 658.1 572 657.3Z" fill="url(#paint8_linear_23_5)"/>
<path fill-rule="evenodd" clip-rule="evenodd" d="M575.9 660.7H573.9L44.1 654.3L43.8 653.9C43.8 653.8 38.1 645.9 43.9 639.3L44.2 639H44.7C48.1 639.1 389 644.8 525 644.8C548 644.8 564.1 644.7 572.9 644.3H573.8L574 645.1C574 645.5 575.5 652.8 573.2 657.2C573.667 657.8 574.167 658.433 574.7 659.1L575.9 660.7ZM45.1 652.3L571.7 658.6C571.5 658.4 571.333 658.2 571.2 658L570.7 657.4L571.1 656.7C573 653.8 572.4 648.4 572.1 646.3C563.1 646.6 547.2 646.8 524.9 646.8C391.2 646.8 59.7 641.2 45 641C41.4 645.5 44.2 650.8 45.1 652.3Z" fill="#786600"/>
<path d="M592.4 705.8L33.1 703.4L30.6 714L40 708.7L52.6 716L64 708.7L73.3 716L82 709.3L89.3 718L105.3 711.3L110.6 715.3L124 710.7L129.3 718.7L147.3 710.7L156.6 717.3L170 709.3L180 716.7L196 711.3L203.3 717.3L217.3 711.3L224.6 718.7L238.6 710L247.3 716.7L259.3 712L268.6 718.7L280.6 710.7L290.6 720.7L304 714L317.3 722L332 714L340.6 719.3L348 714L366 719.3L373.3 713.3L390.6 719.3L399.3 712L412 720L427.3 712.7L432.6 719.3L444.6 712L454.6 718L466.6 711.3L480 720L489.3 710.7L506 719.3L518.6 712L528 720.7L540 714L551.3 721.3L556.6 715.3L569.3 722L579.3 714C579.3 714 596 720 594.6 714.7C594 712.2 593.3 709.2 592.4 705.8Z" fill="url(#paint9_linear_23_5)"/>
<path fill-rule="evenodd" clip-rule="evenodd" d="M569.4 723.2L556.9 716.6L551.5 722.6L539.9 715.2L527.8 721.9L518.5 713.2L506 720.5L489.5 711.9L480.1 721.3L466.6 712.5L454.6 719.2L444.6 713.2L432.4 720.7L427 713.9L411.9 721.1L399.4 713.2L390.9 720.5L373.5 714.5L366.2 720.4L348.2 715.1L340.7 720.5L331.9 715.2L317.3 723.2L303.9 715.1L290.4 721.9L280.5 712L268.6 719.9L259.2 713.1L247.1 717.8L238.6 711.2L224.5 719.9L217.1 712.5L203.1 718.5L195.8 712.5L179.8 717.8L169.9 710.5L156.6 718.5L147.2 711.8L128.9 719.9L123.6 711.9L110.5 716.5L105.2 712.5L89 719.2L81.8 710.7L73.3 717.3L63.9 709.9L52.7 717.2L40 709.8L29.2 716L32.3 702.4H33.1L593.2 704.8L594.1 708.3C594.6 710.6 595.1 712.7 595.6 714.4C595.9 715.5 595.6 716.3 595.2 716.7C594.6 717.5 593.5 717.9 591.8 717.9C587.8 717.9 581.4 715.8 579.5 715.1L569.4 723.2ZM304 712.9L317.3 720.9L332 712.9L340.6 718.2L347.8 712.9L365.7 718.3L373.1 712.2L390.4 718.2L399.2 710.8L412 718.9L427.6 711.5L432.9 718.1L444.6 710.9L454.6 716.9L466.7 710.2L479.8 718.8L489.1 709.5L505.9 718.2L518.8 710.8L528.1 719.5L540 712.9L551.1 720.1L556.4 714.1L569.2 720.9L579.1 712.9L579.6 713.1C579.7 713.1 587.5 715.9 591.7 715.9C593.2 715.9 593.6 715.6 593.6 715.5C593.7 715.4 593.7 715.1 593.6 714.9C593.2 713.2 592.7 711.1 592.1 708.8L591.6 706.8L33.9 704.4L32.1 712L40 707.6L52.6 714.9L64 707.5L73.3 714.8L82.1 708L89.6 716.8L105.4 710.2L110.8 714.3L124.4 709.5L129.7 717.5L147.4 709.6L156.7 716.2L170 708.2L180.1 715.6L196.2 710.3L203.4 716.2L217.5 710.2L224.8 717.4L238.7 708.8L247.4 715.6L259.4 710.9L268.6 717.5L280.7 709.4L290.8 719.5L304 712.9Z" fill="#786600"/>
<path d="M586.1 683.8L38.1 681.9L35.7 691.9L589.7 695.3C588.7 691.6 587.5 687.7 586.1 683.8Z" fill="url(#paint10_linear_23_5)"/>
<path fill-rule="evenodd" clip-rule="evenodd" d="M591 696.3H589.7L34.5 692.9L37.3 680.9H38.1L586.8 682.8L587.1 683.5C588.3 687 589.5 690.9 590.7 695L591 696.3ZM36.9 690.9L588.3 694.3C587.4 691 586.4 687.8 585.4 684.8L38.8 682.9L36.9 690.9Z" fill="#786600"/>
<path d="M589.7 695.3L35.7001 691.9L33.1001 703.4L592.4 705.8C591.7 702.6 590.8 699 589.7 695.3Z" fill="url(#paint11_linear_23_5)"/>
<path fill-rule="evenodd" clip-rule="evenodd" d="M593.7 706.8H592.4L31.8 704.4L34.9 690.9H35.7L590.5 694.3L590.7 695C591.8 699 592.7 702.7 593.4 705.5L593.7 706.8ZM34.3 702.4L591.2 704.8C590.6 702.4 589.8 699.4 589 696.4L36.5001 693L34.3 702.4Z" fill="#786600"/>
<g style="mix-blend-mode:multiply">
<path d="M594.6 714.7C594 712.2 593.3 709.2 592.4 705.8C591.7 702.6 590.8 699 589.7 695.3C588.7 691.6 587.5 687.7 586.1 683.8C584.5 679.2 582.6 674.6 580.5 670.3C578.5 666.5 576.3 662.9 573.9 659.7C573.2 658.9 572.6 658.1 572 657.3C574.6 653.3 573 645.3 573 645.3C505.5 647.8 44.6 640 44.6 640C39.3 646 44.6 653.3 44.6 653.3L41.1 668.9L38.1 681.9L35.7 691.9L33.1 703.4L30.6 714L40 708.7L52.6 716L64 708.7L64.6 709.1C89.9 687.5 150 661.3 292 661.3C497.4 661.3 558.7 677.2 575 717.5L579.3 714C579.3 714 596 720 594.6 714.7Z" fill="url(#paint12_linear_23_5)"/>
</g>
<g style="mix-blend-mode:screen" opacity="0.3">
<path d="M183 702.301C183 702.301 320 702.301 416 702.301C512 702.301 429 677.301 332 678.301C235 679.301 113 697.301 183 702.301Z" fill="white"/>
</g>
<path d="M574 340.301C574 269.301 572 137.301 573 112.301C574 87.3008 560 73.3008 560 73.3008L34 80.3008C20 93.3008 34 240.301 35 306.301C36 372.301 39.3 587.301 37.3 609.301C35.3 631.301 36 636.001 44.6 640.001C44.6 640.001 505.5 647.801 573 645.301C578 635.301 577 608.301 576 569.301C575 530.301 574 411.301 574 340.301Z" fill="url(#paint13_linear_23_5)"/>
<path d="M576.9 339.601C576.9 295.801 576.4 252.101 576 208.301C575.7 176.101 574.7 143.701 575.9 111.601C576.3 100.801 573.9 90.4005 568.8 81.0005C567.7 78.8005 564.7 72.3005 561.8 72.0005C559.8 71.7005 557.6 72.0005 555.6 72.0005C541.267 72.2005 526.967 72.4005 512.7 72.6005C392.767 74.2005 272.867 75.8005 153 77.4005C115.133 77.8672 77.3001 78.3672 39.5001 78.9005C37.2001 78.9005 34.3 78.6005 32.2 79.7005C26 83.1005 26.2001 96.9005 25.8001 102.601C22.7001 139.601 25.9 177.301 27.9 214.301C31.5 284.301 32.8001 354.201 33.8001 424.401C34.3001 463.101 34.7 501.901 34.9 540.601C35.1 563.401 36.2001 586.601 34.5001 609.301C33.9001 617.001 29.4001 641.201 43.5001 641.401C45.9667 641.467 48.4334 641.501 50.9 641.501C67.6334 641.834 84.3667 642.134 101.1 642.401C163.633 643.401 226.167 644.301 288.7 645.101C347 645.901 405.2 646.601 463.5 647.001C499.5 647.301 535.7 648.001 571.8 646.801C573.1 646.701 575.2 646.201 575.9 644.901C579.3 637.301 579.3 628.201 579.6 620.001C580.1 604.101 579.4 588.201 579 572.401C578.4 551.701 578.2 531 577.9 510.201C577.3 453.3 576.9 396.401 576.9 339.601C576.9 338.201 571.1 339.101 571.1 341.101C571.1 396.301 571.5 451.401 572.1 506.601C572.3 527.301 572.5 548.101 573 568.801C573.4 584.601 574 600.501 573.9 616.401C573.8 625.901 574.1 636.901 570.1 645.801C571.433 645.134 572.8 644.501 574.2 643.901C528.7 645.601 483.1 644.301 437.7 643.901C367.7 643.301 297.8 642.401 227.8 641.401C174.6 640.667 121.433 639.867 68.3001 639.001C59.9001 638.801 45.5 642.101 40.7 633.301C35.7 624.001 40.4 609.301 40.6 598.801C40.9 587.101 40.8001 575.501 40.8001 563.901C40.7001 489.801 39.5 415.801 38.4 341.701C37.3 268.801 30.2 195.901 30.7 123.001C30.8 110.501 30.5 96.8005 34.2 84.7005C34.7 83.3005 35.3001 81.8005 36.3001 80.6005C35.2001 81.9005 31.4 81.8005 33.1 81.7005C34.1667 81.7005 35.2334 81.7005 36.3001 81.7005C49.3001 81.5005 62.3001 81.3339 75.3001 81.2005C129.967 80.4672 184.633 79.7339 239.3 79.0005C343.633 77.6005 447.933 76.2005 552.2 74.8005C554.2 74.8005 556.167 74.8005 558.1 74.8005C559.8 74.7005 557 74.1005 557.6 74.7005C560.7 78.1005 562.9 82.1005 564.9 86.1005C574.2 105.301 569.8 132.601 569.8 153.501C570 216.001 571.1 278.601 571.1 341.101C571.1 342.501 576.9 341.501 576.9 339.601Z" fill="#786600"/>
<g style="mix-blend-mode:multiply">
<path d="M571.3 658.1C565.6 653.3 561.2 651.8 561.2 651.8L561.8 649.9C562 650 566.5 651.5 572.6 656.6L571.3 658.1Z" fill="#786600"/>
</g>
<path d="M39.2999 64C33.5999 63.7 27.9999 74.3 33.9999 80.3L560 73.3C563.9 68.9 560.3 64.4 558.7 56L39.2999 64Z" fill="url(#paint14_linear_23_5)"/>
<path fill-rule="evenodd" clip-rule="evenodd" d="M33.6 81.3L33.3 81C29.8 77.5 30 72.7 31.4 69.3C32.9 65.5 36 63 39 63H39.4L559.5 55L559.6 55.8C560.1 58.2 560.8 60.3 561.3 62.2C562.7 66.8 563.9 70.4 560.7 74L560.4 74.3L33.6 81.3ZM39.1 65C36.9 65 34.5 67.1 33.3 70.1C31.9 73.5 32.3 76.9 34.5 79.3L559.6 72.3C561.6 69.7 560.8 67 559.5 62.8C559 61.1 558.4 59.2 557.9 57L39.4 65H39.1Z" fill="#786600"/>
<g style="mix-blend-mode:multiply" opacity="0.5">
<path fill-rule="evenodd" clip-rule="evenodd" d="M573 645.301C505.5 647.801 44.6 640.001 44.6 640.001C36 636.001 35.3 631.301 37.3 609.301C39.3 587.301 36 372.301 35 306.301C34 240.301 20 93.3008 34 80.3008L560 73.3008C560 73.3008 574 87.3008 573 112.301C572 137.301 574 269.301 574 340.301C574 411.301 575 530.301 576 569.301C577 608.301 578 635.301 573 645.301ZM556 297.301C554 243.301 480 284.701 536 215.301C577 164.501 553.3 96.7008 476 99.3008C354 97.3008 90.6 103.301 90.6 103.301C58.6 103.301 38 151.301 46 245.301C54 339.301 67.3 422.701 85.3 468.701C103.3 514.701 65.3 520.701 62.6 584.701C60.1 646.701 267.5 632.701 440 627.301C568 623.301 550 597.301 556 497.301C562 397.301 558 351.301 556 297.301Z" fill="#8C8C8D"/>
</g>
<g style="mix-blend-mode:screen" opacity="0.3">
<path d="M112 283.3C112 283.3 169.3 315.3 306 293.3C441.7 271.5 423.1 309.2 281.5 360.2C140 411.3 132 427.3 95.9999 357.3C59.9999 287.3 75.9999 267.3 112 283.3Z" fill="white"/>
</g>
<g style="mix-blend-mode:screen" opacity="0.3">
<path d="M122.6 536.7C122.6 536.7 194.6 464.7 352.6 402.7C510.6 340.7 538.6 370.7 540.6 444.7C542.6 518.7 500.1 583.8 363.4 605.2C226.6 626.7 48.5999 606.7 122.6 536.7Z" fill="white"/>
</g>
<defs>
<linearGradient id="paint0_linear_23_5" x1="297.458" y1="-23.3254" x2="297.458" y2="55.7456" gradientUnits="userSpaceOnUse">
<stop stop-color="#B29700"/>
<stop offset="0.201" stop-color="#F0E477"/>
<stop offset="0.566" stop-color="#FED800"/>
<stop offset="1" stop-color="#B29700"/>
</linearGradient>
<linearGradient id="paint1_linear_23_5" x1="293.746" y1="-23.3252" x2="293.746" y2="55.7468" gradientUnits="userSpaceOnUse">
<stop stop-color="#B29700"/>
<stop offset="0.201" stop-color="#F0E477"/>
<stop offset="0.566" stop-color="#FED800"/>
<stop offset="1" stop-color="#B29700"/>
</linearGradient>
<linearGradient id="paint2_linear_23_5" x1="295.79" y1="-23.326" x2="295.79" y2="55.746" gradientUnits="userSpaceOnUse">
<stop stop-color="#B29700"/>
<stop offset="0.201" stop-color="#F0E477"/>
<stop offset="0.566" stop-color="#FED800"/>
<stop offset="1" stop-color="#B29700"/>
</linearGradient>
<linearGradient id="paint3_linear_23_5" x1="294.784" y1="-23.326" x2="294.784" y2="55.746" gradientUnits="userSpaceOnUse">
<stop stop-color="#B29700"/>
<stop offset="0.201" stop-color="#F0E477"/>
<stop offset="0.566" stop-color="#FED800"/>
<stop offset="1" stop-color="#B29700"/>
</linearGradient>
<linearGradient id="paint4_linear_23_5" x1="293.984" y1="-23.326" x2="293.984" y2="55.746" gradientUnits="userSpaceOnUse">
<stop stop-color="#B29700"/>
<stop offset="0.201" stop-color="#F0E477"/>
<stop offset="0.566" stop-color="#FED800"/>
<stop offset="1" stop-color="#B29700"/>
</linearGradient>
<linearGradient id="paint5_linear_23_5" x1="296.781" y1="-79.3308" x2="296.781" y2="27.5432" gradientUnits="userSpaceOnUse">
<stop stop-color="#B29700"/>
<stop offset="0.201" stop-color="#F0E477"/>
<stop offset="0.566" stop-color="#FED800"/>
<stop offset="1" stop-color="#B29700"/>
</linearGradient>
<linearGradient id="paint6_linear_23_5" x1="310.49" y1="751.338" x2="310.49" y2="667.073" gradientUnits="userSpaceOnUse">
<stop stop-color="#B29700"/>
<stop offset="0.201" stop-color="#F0E477"/>
<stop offset="0.566" stop-color="#FED800"/>
<stop offset="1" stop-color="#B29700"/>
</linearGradient>
<linearGradient id="paint7_linear_23_5" x1="311.892" y1="751.337" x2="311.892" y2="667.072" gradientUnits="userSpaceOnUse">
<stop stop-color="#B29700"/>
<stop offset="0.201" stop-color="#F0E477"/>
<stop offset="0.566" stop-color="#FED800"/>
<stop offset="1" stop-color="#B29700"/>
</linearGradient>
<linearGradient id="paint8_linear_23_5" x1="307.704" y1="751.336" x2="307.704" y2="667.072" gradientUnits="userSpaceOnUse">
<stop stop-color="#B29700"/>
<stop offset="0.201" stop-color="#F0E477"/>
<stop offset="0.566" stop-color="#FED800"/>
<stop offset="1" stop-color="#B29700"/>
</linearGradient>
<linearGradient id="paint9_linear_23_5" x1="312.369" y1="751.336" x2="312.369" y2="667.073" gradientUnits="userSpaceOnUse">
<stop stop-color="#B29700"/>
<stop offset="0.201" stop-color="#F0E477"/>
<stop offset="0.566" stop-color="#FED800"/>
<stop offset="1" stop-color="#B29700"/>
</linearGradient>
<linearGradient id="paint10_linear_23_5" x1="312.574" y1="751.337" x2="312.574" y2="667.072" gradientUnits="userSpaceOnUse">
<stop stop-color="#B29700"/>
<stop offset="0.201" stop-color="#F0E477"/>
<stop offset="0.566" stop-color="#FED800"/>
<stop offset="1" stop-color="#B29700"/>
</linearGradient>
<linearGradient id="paint11_linear_23_5" x1="312.598" y1="751.337" x2="312.598" y2="667.072" gradientUnits="userSpaceOnUse">
<stop stop-color="#B29700"/>
<stop offset="0.201" stop-color="#F0E477"/>
<stop offset="0.566" stop-color="#FED800"/>
<stop offset="1" stop-color="#B29700"/>
</linearGradient>
<linearGradient id="paint12_linear_23_5" x1="282.748" y1="834.148" x2="295.757" y2="731.526" gradientUnits="userSpaceOnUse">
<stop stop-color="#B29700"/>
<stop offset="0.201" stop-color="#F0E477"/>
<stop offset="0.566" stop-color="#FED800"/>
<stop offset="1" stop-color="#B29700"/>
</linearGradient>
<linearGradient id="paint13_linear_23_5" x1="46.641" y1="73.3388" x2="559.203" y2="73.3388" gradientUnits="userSpaceOnUse">
<stop stop-color="#B29700"/>
<stop offset="0.201" stop-color="#F0E477"/>
<stop offset="0.566" stop-color="#FED800"/>
<stop offset="1" stop-color="#B29700"/>
</linearGradient>
<linearGradient id="paint14_linear_23_5" x1="297.134" y1="-23.326" x2="297.134" y2="55.745" gradientUnits="userSpaceOnUse">
<stop stop-color="#B29700"/>
<stop offset="0.201" stop-color="#F0E477"/>
<stop offset="0.566" stop-color="#FED800"/>
<stop offset="1" stop-color="#B29700"/>
</linearGradient>
</defs>
</svg>
