<?xml version="1.0" encoding="utf-8"?>
<!-- Generator: Adobe Illustrator 27.5.0, SVG Export Plug-In . SVG Version: 6.00 Build 0)  -->
<svg version="1.1" id="Layer_1" xmlns="http://www.w3.org/2000/svg" xmlns:xlink="http://www.w3.org/1999/xlink" x="0px" y="0px"
	 viewBox="0 0 301.692 267.66" style="enable-background:new 0 0 301.692 267.66;" xml:space="preserve">
<g>
	<g>
		<path style="fill:#FFFFFF;" d="M76.228,250.987c4.471,4.212,9.812,7.366,15.478,8.771c3.31,0.814,6.681,1.21,10.014,1.21
			c8.882,0,17.484-2.814,23.857-8.048c0.092-0.076,0.184-0.152,0.274-0.227c1.557,0.607,3.183,1.079,4.869,1.404
			c8.551,1.661,19.66,0.286,27.663-5.927c6.548,2.771,13.944,3.483,21.499,1.884c3.595-0.757,7.576-2.581,11.207-5.253
			c9.702,4.368,21.374,5.18,31.474-0.746c0.473-0.277,2.191-1.314,4.372-3.02c15.366,9.294,34.418,6.457,49.087-7.49
			c11.412-10.838,15.72-30.494,10.53-45.551c0.715-1.746,1.316-3.548,1.8-5.401c4.851-8.191,6.363-18.228,5.617-25.147
			c-0.913-8.334-2.88-17.353-11.018-26.829c-1.137-1.325-2.842-2.962-4.962-4.543c0.825-13.991-6.127-27.889-17.656-35.486
			c0.008-0.552,0.002-1.022-0.008-1.392c-0.417-13.96-6.32-25.576-16.168-31.853c-6.181-3.959-12.821-6.089-19.488-6.339
			c-2.131-3.504-5.12-6.792-9.43-9.399c-7.486-7.743-15.362-13.092-24.015-16.318c-0.047-0.017-0.094-0.035-0.142-0.052
			c-14.174-5.115-28.765-4.75-42.199,1.057c-9.794,4.162-18.402,11.243-24.406,19.93c-7.355,2.204-13.904,6.258-18.922,11.734
			c-4.455,0.151-8.924,0.98-13.24,2.476c-0.047,0.016-0.094,0.032-0.141,0.049c-6.929,2.482-13.084,6.483-17.798,11.572
			c-0.245,0.264-0.479,0.538-0.703,0.82c-4.28,5.386-6.778,9.892-8.581,15.492c-3.06,8.72-3.761,16.325-4.274,21.89l-0.11,1.188
			c-0.016,0.17-0.029,0.34-0.039,0.51c-0.189,3.239-0.27,6.12-0.287,8.615c-3.434,2.11-6.543,4.697-9.157,7.656
			c-5.451,6.195-9.198,14.676-10.277,23.267c-0.689,5.485-0.298,10.788,1.102,15.629c-0.836,1.222-1.546,2.368-2.128,3.371
			c-3.596,6.162-5.067,14.02-4.214,21.355c-4.17,3.531-7.577,8.057-9.914,13.306c-4.522,10.158-4.382,21.524,0.379,31.174
			c5.514,11.193,16.931,18.71,29.797,19.617C63.332,256.461,70.358,254.679,76.228,250.987z"/>
		<path style="fill:#F1F1F1;" d="M74.868,249.628c4.472,4.211,9.812,7.366,15.479,8.771c3.309,0.813,6.68,1.209,10.014,1.209
			c8.882,0,17.484-2.813,23.857-8.047c0.092-0.076,0.183-0.152,0.275-0.228c1.556,0.607,3.183,1.079,4.869,1.405
			c8.551,1.66,19.66,0.285,27.663-5.927c6.547,2.77,13.943,3.482,21.499,1.884c3.594-0.757,7.576-2.581,11.207-5.254
			c9.702,4.368,21.373,5.18,31.474-0.746c0.473-0.276,2.192-1.314,4.373-3.02c15.366,9.294,34.418,6.457,49.087-7.49
			c11.412-10.838,15.719-30.493,10.53-45.551c0.715-1.746,1.316-3.549,1.8-5.401c4.851-8.191,6.363-18.227,5.616-25.146
			c-0.913-8.334-2.88-17.353-11.018-26.829c-1.137-1.325-2.843-2.962-4.962-4.543c0.825-13.99-6.128-27.889-17.656-35.486
			c0.008-0.551,0.002-1.021-0.008-1.392c-0.417-13.96-6.321-25.577-16.168-31.854c-6.181-3.959-12.821-6.09-19.489-6.339
			c-2.131-3.504-5.12-6.792-9.43-9.399c-7.486-7.743-15.363-13.092-24.015-16.318c-0.047-0.018-0.094-0.035-0.142-0.052
			c-14.174-5.116-28.747-4.709-42.198,1.056c-9.782,4.192-18.402,11.244-24.406,19.931c-7.355,2.203-13.904,6.258-18.923,11.734
			c-4.455,0.151-8.924,0.98-13.24,2.476c-0.047,0.016-0.094,0.033-0.141,0.049c-6.929,2.482-13.083,6.483-17.798,11.571
			c-0.245,0.264-0.479,0.538-0.703,0.82c-4.28,5.386-6.706,9.916-8.581,15.492c-2.947,8.758-3.761,16.325-4.274,21.891l-0.11,1.188
			c-0.016,0.17-0.029,0.34-0.038,0.51c-0.189,3.239-0.27,6.12-0.287,8.614c-3.434,2.11-6.542,4.697-9.157,7.657
			c-5.451,6.195-9.197,14.676-10.277,23.267c-0.689,5.485-0.298,10.788,1.103,15.628c-0.836,1.222-1.546,2.368-2.128,3.372
			c-3.595,6.162-5.067,14.02-4.214,21.355c-4.169,3.531-7.577,8.057-9.914,13.306c-4.522,10.158-4.382,21.525,0.379,31.174
			c5.513,11.192,16.931,18.709,29.797,19.617C61.973,255.101,68.998,253.319,74.868,249.628z"/>
		<path style="fill:#E2E2E2;" d="M73.508,248.268c4.471,4.211,9.812,7.366,15.479,8.771c3.309,0.814,6.68,1.21,10.013,1.21
			c8.882,0,17.484-2.814,23.858-8.048c0.092-0.076,0.183-0.151,0.274-0.227c1.557,0.607,3.183,1.079,4.869,1.405
			c8.551,1.66,19.66,0.285,27.662-5.928c6.547,2.771,13.943,3.483,21.499,1.884c3.595-0.757,7.576-2.581,11.207-5.253
			c9.702,4.368,21.374,5.18,31.474-0.746c0.473-0.276,2.192-1.314,4.373-3.02c15.366,9.294,34.418,6.458,49.087-7.49
			c11.412-10.838,15.72-30.493,10.53-45.551c0.715-1.746,1.316-3.549,1.8-5.401c4.851-8.191,6.364-18.228,5.617-25.147
			c-0.914-8.334-2.88-17.352-11.018-26.829c-1.138-1.325-2.843-2.962-4.962-4.542c0.825-13.991-6.127-27.889-17.656-35.486
			c0.008-0.551,0.002-1.022-0.008-1.392c-0.417-13.96-6.32-25.576-16.168-31.854c-6.181-3.959-12.821-6.089-19.488-6.339
			c-2.131-3.504-5.12-6.792-9.43-9.399c-7.486-7.743-15.362-13.092-24.015-16.318c-0.047-0.018-0.094-0.035-0.142-0.052
			c-14.174-5.114-28.746-4.709-42.198,1.057c-9.781,4.192-18.402,11.244-24.407,19.93c-7.355,2.204-13.904,6.258-18.922,11.735
			c-4.455,0.15-8.924,0.98-13.24,2.475c-0.047,0.016-0.094,0.032-0.141,0.049c-6.929,2.482-13.083,6.483-17.798,11.571
			c-0.245,0.264-0.48,0.538-0.704,0.82c-4.28,5.386-6.706,9.916-8.581,15.492c-2.946,8.759-3.761,16.325-4.274,21.89l-0.11,1.188
			c-0.016,0.17-0.029,0.34-0.039,0.51c-0.188,3.239-0.27,6.12-0.287,8.615c-3.434,2.11-6.542,4.697-9.157,7.656
			c-5.451,6.196-9.198,14.676-10.277,23.267c-0.689,5.485-0.298,10.788,1.102,15.629c-0.837,1.221-1.546,2.368-2.128,3.371
			c-3.596,6.162-5.067,14.02-4.213,21.355c-4.17,3.531-7.578,8.057-9.915,13.306c-4.522,10.158-4.382,21.524,0.38,31.174
			c5.513,11.193,16.931,18.71,29.797,19.618C60.612,253.741,67.639,251.959,73.508,248.268z"/>
		<path style="fill:#D4D4D4;" d="M72.149,246.908c4.471,4.211,9.812,7.366,15.478,8.771c3.31,0.812,6.681,1.21,10.014,1.209
			c8.882,0,17.484-2.814,23.857-8.047c0.092-0.076,0.184-0.152,0.274-0.228c1.556,0.607,3.183,1.079,4.869,1.405
			c8.551,1.66,19.66,0.285,27.663-5.927c6.548,2.77,13.943,3.482,21.499,1.884c3.594-0.757,7.576-2.58,11.207-5.254
			c9.702,4.368,21.374,5.18,31.474-0.746c0.473-0.276,2.192-1.314,4.372-3.02c15.366,9.293,34.419,6.457,49.087-7.49
			c11.412-10.838,15.72-30.493,10.53-45.551c0.715-1.746,1.316-3.548,1.8-5.401c4.851-8.191,6.363-18.228,5.617-25.146
			c-0.914-8.335-2.88-17.353-11.018-26.829c-1.137-1.325-2.842-2.962-4.962-4.543c0.825-13.99-6.127-27.889-17.656-35.486
			c0.008-0.551,0.002-1.021-0.008-1.392c-0.417-13.96-6.321-25.576-16.168-31.854c-6.181-3.959-12.821-6.09-19.489-6.339
			c-2.131-3.504-5.12-6.792-9.43-9.399c-7.486-7.743-15.362-13.092-24.015-16.318c-0.047-0.018-0.094-0.035-0.141-0.052
			c-14.174-5.115-28.747-4.709-42.199,1.056c-9.781,4.192-18.402,11.244-24.406,19.931c-7.355,2.204-13.904,6.258-18.923,11.734
			c-4.455,0.151-8.924,0.98-13.24,2.476c-0.046,0.016-0.093,0.033-0.14,0.049c-6.929,2.482-13.084,6.483-17.798,11.571
			c-0.245,0.264-0.479,0.538-0.704,0.82c-4.28,5.386-6.705,9.915-8.581,15.492c-2.946,8.759-3.76,16.325-4.273,21.891l-0.11,1.188
			c-0.016,0.17-0.029,0.34-0.039,0.51c-0.189,3.239-0.27,6.12-0.287,8.614c-3.434,2.111-6.542,4.697-9.157,7.657
			c-5.452,6.195-9.198,14.676-10.278,23.267c-0.689,5.485-0.298,10.788,1.103,15.629c-0.836,1.222-1.546,2.368-2.128,3.371
			c-3.595,6.162-5.067,14.02-4.213,21.355c-4.17,3.531-7.577,8.057-9.914,13.306c-4.522,10.158-4.382,21.524,0.379,31.174
			c5.514,11.192,16.931,18.71,29.797,19.617C59.253,252.381,66.279,250.6,72.149,246.908z"/>
		<path style="fill:#C5C5C5;" d="M70.788,245.549c4.472,4.21,9.812,7.365,15.479,8.77c3.309,0.814,6.681,1.21,10.013,1.209
			c8.882,0,17.484-2.814,23.858-8.047c0.092-0.075,0.183-0.151,0.274-0.228c1.557,0.607,3.183,1.08,4.869,1.405
			c8.551,1.66,19.66,0.285,27.663-5.928c6.547,2.771,13.943,3.483,21.499,1.885c3.595-0.757,7.576-2.581,11.207-5.254
			c9.702,4.368,21.374,5.18,31.474-0.746c0.473-0.276,2.192-1.314,4.373-3.02c15.366,9.294,34.418,6.457,49.087-7.49
			c11.412-10.838,15.72-30.493,10.53-45.551c0.715-1.746,1.316-3.549,1.8-5.401c4.851-8.19,6.363-18.227,5.616-25.147
			c-0.913-8.333-2.88-17.353-11.018-26.829c-1.138-1.325-2.843-2.962-4.962-4.542c0.825-13.991-6.128-27.89-17.656-35.487
			c0.008-0.551,0.002-1.022-0.008-1.392c-0.417-13.96-6.32-25.576-16.168-31.853c-6.181-3.959-12.821-6.09-19.488-6.339
			c-2.131-3.504-5.12-6.791-9.43-9.399c-7.486-7.743-15.362-13.092-24.015-16.318c-0.047-0.017-0.094-0.035-0.142-0.052
			c-14.174-5.115-28.746-4.709-42.198,1.056c-9.781,4.192-18.402,11.244-24.407,19.931c-7.355,2.203-13.904,6.258-18.922,11.734
			c-4.455,0.15-8.924,0.98-13.24,2.476c-0.046,0.016-0.093,0.032-0.14,0.049c-6.93,2.483-13.084,6.484-17.798,11.572
			c-0.245,0.265-0.48,0.538-0.704,0.82c-4.28,5.385-6.705,9.916-8.581,15.491c-2.946,8.759-3.761,16.325-4.274,21.891l-0.11,1.188
			c-0.016,0.169-0.029,0.339-0.039,0.51c-0.189,3.239-0.271,6.12-0.287,8.614c-3.434,2.11-6.542,4.697-9.157,7.656
			c-5.451,6.196-9.197,14.676-10.277,23.267c-0.689,5.485-0.298,10.789,1.102,15.628c-0.836,1.222-1.546,2.369-2.128,3.372
			c-3.596,6.162-5.067,14.02-4.213,21.355c-4.17,3.531-7.577,8.057-9.914,13.306c-4.522,10.159-4.382,21.524,0.38,31.174
			c5.513,11.193,16.931,18.71,29.797,19.618C57.893,251.021,64.919,249.239,70.788,245.549z"/>
		<path style="fill:#B7B7B7;" d="M69.429,244.189c4.471,4.211,9.812,7.366,15.478,8.771c3.31,0.813,6.681,1.21,10.014,1.209
			c8.882,0,17.484-2.814,23.857-8.047c0.092-0.076,0.184-0.152,0.274-0.228c1.556,0.607,3.183,1.079,4.869,1.405
			c8.551,1.66,19.66,0.286,27.663-5.927c6.548,2.771,13.943,3.483,21.499,1.884c3.595-0.757,7.576-2.581,11.207-5.254
			c9.702,4.368,21.374,5.18,31.474-0.746c0.473-0.276,2.192-1.314,4.373-3.02c15.366,9.294,34.419,6.457,49.087-7.49
			c11.412-10.838,15.72-30.493,10.53-45.551c0.715-1.746,1.316-3.548,1.8-5.401c4.851-8.191,6.363-18.228,5.617-25.146
			c-0.914-8.334-2.88-17.353-11.018-26.829c-1.137-1.325-2.842-2.962-4.962-4.542c0.825-13.991-6.127-27.889-17.656-35.486
			c0.008-0.552,0.002-1.022-0.008-1.392c-0.417-13.96-6.321-25.576-16.168-31.854c-6.181-3.96-12.821-6.089-19.488-6.339
			c-2.131-3.504-5.12-6.792-9.43-9.399c-7.486-7.743-15.362-13.092-24.015-16.318c-0.047-0.017-0.094-0.035-0.141-0.052
			c-14.174-5.115-28.747-4.709-42.199,1.056c-9.781,4.192-18.402,11.244-24.406,19.931c-7.356,2.204-13.904,6.258-18.923,11.734
			c-4.455,0.151-8.924,0.98-13.24,2.476c-0.047,0.016-0.094,0.033-0.141,0.049c-6.929,2.482-13.084,6.483-17.798,11.572
			c-0.245,0.264-0.479,0.538-0.704,0.82c-4.28,5.386-6.706,9.915-8.581,15.491c-2.946,8.759-3.76,16.325-4.273,21.891l-0.11,1.188
			c-0.016,0.17-0.029,0.34-0.039,0.51c-0.189,3.239-0.27,6.12-0.287,8.615c-3.434,2.11-6.542,4.697-9.157,7.656
			c-5.452,6.195-9.198,14.676-10.277,23.267c-0.689,5.485-0.298,10.788,1.102,15.629c-0.836,1.222-1.546,2.368-2.128,3.371
			c-3.595,6.162-5.067,14.02-4.213,21.355c-4.17,3.531-7.577,8.057-9.914,13.306c-4.523,10.158-4.382,21.524,0.379,31.174
			c5.514,11.192,16.931,18.709,29.797,19.617C56.533,249.661,63.56,247.88,69.429,244.189z"/>
		<path style="fill:#A8A8A8;" d="M68.069,242.829c4.471,4.211,9.812,7.366,15.478,8.771c3.309,0.814,6.681,1.211,10.013,1.21
			c8.882,0,17.484-2.814,23.858-8.047c0.092-0.076,0.183-0.152,0.274-0.228c1.557,0.608,3.184,1.079,4.869,1.405
			c8.551,1.66,19.66,0.286,27.663-5.927c6.547,2.77,13.943,3.482,21.499,1.884c3.594-0.757,7.576-2.58,11.207-5.254
			c9.702,4.368,21.373,5.18,31.474-0.745c0.473-0.277,2.192-1.314,4.373-3.02c15.366,9.294,34.418,6.457,49.087-7.49
			c11.412-10.838,15.719-30.493,10.53-45.551c0.715-1.746,1.316-3.548,1.8-5.401c4.851-8.191,6.363-18.227,5.616-25.146
			c-0.913-8.335-2.88-17.354-11.018-26.829c-1.138-1.326-2.843-2.962-4.962-4.543c0.825-13.99-6.128-27.888-17.655-35.486
			c0.007-0.552,0.002-1.022-0.008-1.393c-0.418-13.959-6.321-25.576-16.169-31.853c-6.181-3.96-12.821-6.09-19.488-6.34
			c-2.131-3.503-5.12-6.792-9.43-9.399c-7.486-7.743-15.363-13.092-24.015-16.318c-0.047-0.018-0.094-0.034-0.141-0.051
			c-14.174-5.116-28.747-4.71-42.199,1.056c-9.781,4.192-18.402,11.244-24.407,19.931c-7.355,2.204-13.904,6.258-18.922,11.734
			c-4.455,0.151-8.924,0.98-13.24,2.476c-0.047,0.016-0.094,0.033-0.141,0.049c-6.93,2.482-13.084,6.483-17.798,11.571
			c-0.245,0.264-0.479,0.538-0.704,0.82c-4.28,5.386-6.705,9.916-8.581,15.492c-2.946,8.758-3.761,16.324-4.273,21.89l-0.11,1.188
			c-0.016,0.17-0.029,0.341-0.039,0.511c-0.189,3.238-0.27,6.12-0.287,8.615c-3.434,2.111-6.542,4.697-9.156,7.656
			c-5.452,6.195-9.198,14.676-10.278,23.267c-0.689,5.484-0.297,10.788,1.102,15.628c-0.836,1.223-1.545,2.368-2.128,3.372
			c-3.596,6.161-5.067,14.02-4.213,21.354c-4.169,3.531-7.577,8.057-9.914,13.307c-4.522,10.158-4.382,21.524,0.379,31.173
			c5.514,11.193,16.931,18.71,29.797,19.618C55.173,248.301,62.199,246.52,68.069,242.829z"/>
		<path style="fill:#9A9A9A;" d="M66.709,241.469c4.471,4.211,9.812,7.366,15.478,8.771c3.31,0.813,6.681,1.21,10.014,1.209
			c8.882,0,17.484-2.814,23.857-8.048c0.092-0.076,0.184-0.152,0.274-0.228c1.557,0.607,3.183,1.079,4.869,1.404
			c8.551,1.661,19.66,0.286,27.663-5.927c6.548,2.771,13.944,3.483,21.499,1.884c3.595-0.757,7.576-2.581,11.207-5.253
			c9.702,4.368,21.374,5.18,31.474-0.746c0.473-0.277,2.191-1.314,4.372-3.02c15.366,9.294,34.418,6.457,49.087-7.49
			c11.412-10.838,15.72-30.494,10.53-45.551c0.715-1.746,1.316-3.548,1.8-5.401c4.851-8.191,6.363-18.228,5.617-25.147
			c-0.914-8.334-2.88-17.353-11.018-26.829c-1.137-1.325-2.842-2.962-4.962-4.543c0.825-13.991-6.127-27.889-17.656-35.486
			c0.008-0.552,0.002-1.022-0.008-1.392c-0.417-13.96-6.32-25.576-16.168-31.854c-6.181-3.959-12.821-6.089-19.488-6.339
			c-2.131-3.504-5.12-6.792-9.43-9.399c-7.486-7.743-15.362-13.092-24.015-16.318c-0.047-0.018-0.094-0.035-0.142-0.052
			c-14.174-5.115-28.747-4.709-42.199,1.057c-9.781,4.192-18.402,11.243-24.406,19.93c-7.355,2.204-13.904,6.258-18.922,11.734
			c-4.455,0.151-8.924,0.98-13.24,2.476c-0.047,0.016-0.094,0.032-0.141,0.049c-6.929,2.483-13.084,6.483-17.798,11.572
			c-0.245,0.264-0.479,0.538-0.703,0.82c-4.28,5.386-6.706,9.916-8.581,15.492c-2.947,8.758-3.761,16.325-4.274,21.89l-0.11,1.188
			c-0.016,0.17-0.029,0.34-0.039,0.51c-0.189,3.239-0.27,6.12-0.287,8.615c-3.434,2.11-6.542,4.697-9.157,7.656
			c-5.451,6.195-9.198,14.676-10.277,23.267c-0.689,5.485-0.298,10.788,1.102,15.629c-0.836,1.222-1.546,2.368-2.128,3.371
			c-3.596,6.162-5.067,14.02-4.214,21.355c-4.17,3.531-7.577,8.057-9.914,13.306c-4.522,10.158-4.382,21.524,0.379,31.174
			c5.514,11.193,16.931,18.71,29.797,19.617C53.813,246.942,60.84,245.16,66.709,241.469z"/>
		<path style="fill:#8B8B8B;" d="M65.35,240.109c4.471,4.211,9.812,7.365,15.478,8.771c3.309,0.813,6.681,1.21,10.014,1.21
			c8.881,0,17.484-2.814,23.857-8.048c0.092-0.075,0.183-0.151,0.273-0.228c1.557,0.607,3.184,1.079,4.869,1.405
			c8.551,1.66,19.661,0.285,27.663-5.927c6.547,2.77,13.943,3.482,21.499,1.884c3.594-0.758,7.576-2.581,11.207-5.254
			c9.702,4.368,21.374,5.18,31.474-0.746c0.472-0.277,2.192-1.314,4.372-3.02c15.366,9.294,34.419,6.457,49.087-7.49
			c11.412-10.839,15.719-30.494,10.53-45.551c0.716-1.746,1.316-3.549,1.8-5.401c4.851-8.191,6.363-18.228,5.616-25.147
			c-0.914-8.335-2.88-17.353-11.018-26.829c-1.137-1.325-2.843-2.962-4.962-4.543c0.825-13.991-6.127-27.89-17.656-35.486
			c0.008-0.551,0.002-1.021-0.007-1.392c-0.417-13.961-6.321-25.577-16.168-31.854c-6.181-3.959-12.821-6.089-19.488-6.339
			c-2.131-3.504-5.12-6.792-9.43-9.399c-7.486-7.742-15.362-13.092-24.015-16.317c-0.047-0.017-0.094-0.035-0.141-0.052
			c-14.174-5.116-28.747-4.709-42.198,1.056c-9.781,4.192-18.402,11.244-24.407,19.931c-7.355,2.203-13.904,6.258-18.922,11.735
			c-4.455,0.15-8.924,0.979-13.24,2.475c-0.047,0.017-0.094,0.032-0.141,0.049c-6.929,2.482-13.083,6.484-17.798,11.572
			c-0.245,0.264-0.479,0.538-0.704,0.819c-4.279,5.386-6.705,9.916-8.581,15.492c-2.946,8.759-3.761,16.326-4.273,21.891
			l-0.11,1.188c-0.016,0.17-0.029,0.339-0.039,0.51c-0.189,3.239-0.27,6.119-0.287,8.614c-3.435,2.111-6.542,4.697-9.157,7.657
			c-5.451,6.195-9.197,14.676-10.277,23.267c-0.689,5.485-0.299,10.788,1.102,15.628c-0.837,1.222-1.546,2.369-2.128,3.372
			c-3.596,6.162-5.067,14.02-4.214,21.355c-4.17,3.531-7.577,8.057-9.914,13.306c-4.523,10.159-4.383,21.524,0.379,31.174
			c5.514,11.193,16.931,18.71,29.797,19.618C52.454,245.582,59.479,243.8,65.35,240.109z"/>
		<path style="fill:#7D7D7D;" d="M63.99,238.749c4.471,4.211,9.812,7.366,15.479,8.771c3.309,0.814,6.68,1.21,10.013,1.21
			c8.882,0,17.484-2.814,23.858-8.048c0.092-0.076,0.183-0.151,0.274-0.228c1.557,0.607,3.183,1.079,4.869,1.405
			c8.551,1.66,19.66,0.285,27.663-5.928c6.547,2.77,13.943,3.483,21.498,1.884c3.595-0.757,7.576-2.581,11.207-5.253
			c9.702,4.368,21.374,5.18,31.474-0.746c0.473-0.276,2.192-1.314,4.372-3.02c15.366,9.294,34.418,6.457,49.087-7.49
			c11.412-10.838,15.72-30.493,10.53-45.551c0.715-1.746,1.316-3.549,1.8-5.401c4.851-8.191,6.364-18.227,5.617-25.147
			c-0.914-8.334-2.88-17.352-11.018-26.829c-1.138-1.325-2.843-2.962-4.962-4.542c0.825-13.991-6.127-27.889-17.656-35.486
			c0.008-0.551,0.002-1.022-0.008-1.392c-0.417-13.96-6.32-25.576-16.168-31.854c-6.181-3.959-12.821-6.089-19.488-6.339
			c-2.131-3.504-5.12-6.792-9.43-9.4c-7.486-7.743-15.362-13.092-24.015-16.318c-0.047-0.018-0.094-0.035-0.142-0.052
			c-14.174-5.115-28.746-4.709-42.198,1.057c-9.781,4.192-18.402,11.244-24.407,19.93c-7.355,2.204-13.904,6.258-18.922,11.735
			c-4.455,0.15-8.924,0.98-13.24,2.476c-0.047,0.016-0.094,0.032-0.141,0.049c-6.929,2.482-13.083,6.483-17.798,11.572
			c-0.245,0.264-0.48,0.538-0.704,0.82c-4.28,5.386-6.706,9.916-8.581,15.492c-2.946,8.758-3.761,16.325-4.274,21.89l-0.11,1.188
			c-0.016,0.17-0.029,0.34-0.039,0.51c-0.188,3.239-0.27,6.12-0.287,8.615c-3.434,2.11-6.542,4.697-9.157,7.656
			c-5.451,6.196-9.198,14.676-10.277,23.267c-0.689,5.485-0.298,10.789,1.102,15.629c-0.836,1.222-1.546,2.368-2.128,3.371
			c-3.596,6.162-5.067,14.02-4.213,21.355c-4.17,3.531-7.578,8.057-9.915,13.306c-4.522,10.158-4.382,21.525,0.38,31.174
			c5.513,11.193,16.931,18.71,29.797,19.618C51.094,244.222,58.12,242.441,63.99,238.749z"/>
		<path style="fill:#6E6E6E;" d="M62.63,237.389c4.471,4.211,9.811,7.366,15.478,8.772c3.31,0.813,6.681,1.21,10.013,1.209
			c8.882,0,17.484-2.814,23.858-8.047c0.092-0.076,0.184-0.152,0.274-0.228c1.556,0.607,3.183,1.079,4.869,1.404
			c8.55,1.661,19.66,0.286,27.662-5.927c6.548,2.77,13.944,3.483,21.5,1.884c3.594-0.757,7.576-2.58,11.207-5.254
			c9.702,4.368,21.373,5.181,31.473-0.745c0.473-0.276,2.192-1.315,4.373-3.02c15.366,9.293,34.419,6.457,49.087-7.49
			c11.412-10.838,15.72-30.494,10.53-45.551c0.715-1.746,1.316-3.548,1.8-5.401c4.851-8.191,6.363-18.228,5.617-25.146
			c-0.913-8.335-2.88-17.354-11.018-26.829c-1.137-1.326-2.842-2.962-4.961-4.543c0.825-13.99-6.128-27.889-17.656-35.486
			c0.008-0.552,0.003-1.022-0.008-1.392c-0.418-13.961-6.321-25.576-16.168-31.854c-6.181-3.959-12.821-6.09-19.489-6.339
			c-2.13-3.505-5.119-6.792-9.429-9.4c-7.486-7.743-15.362-13.091-24.015-16.317c-0.047-0.018-0.094-0.035-0.141-0.052
			c-14.174-5.115-28.747-4.709-42.199,1.056c-9.781,4.192-18.402,11.243-24.406,19.93c-7.356,2.204-13.905,6.258-18.923,11.734
			c-4.455,0.151-8.924,0.98-13.24,2.476c-0.047,0.016-0.094,0.033-0.141,0.049c-6.929,2.481-13.084,6.483-17.798,11.571
			c-0.245,0.264-0.479,0.538-0.704,0.819c-4.279,5.387-6.705,9.916-8.581,15.492c-2.946,8.758-3.761,16.325-4.274,21.89l-0.11,1.188
			c-0.016,0.169-0.029,0.34-0.039,0.51c-0.188,3.239-0.27,6.12-0.287,8.615c-3.434,2.111-6.542,4.697-9.157,7.657
			c-5.451,6.195-9.198,14.676-10.277,23.267c-0.689,5.485-0.298,10.788,1.102,15.629c-0.836,1.222-1.545,2.367-2.128,3.371
			c-3.595,6.161-5.067,14.02-4.213,21.354c-4.17,3.531-7.578,8.058-9.915,13.306c-4.522,10.159-4.382,21.525,0.379,31.174
			c5.514,11.192,16.931,18.71,29.797,19.617C49.734,242.862,56.761,241.081,62.63,237.389z"/>
		<path style="fill:#606060;" d="M61.27,236.03c4.471,4.211,9.812,7.366,15.478,8.771c3.309,0.814,6.681,1.21,10.013,1.21
			c8.882,0,17.484-2.814,23.858-8.047c0.092-0.076,0.183-0.152,0.274-0.228c1.557,0.607,3.183,1.079,4.869,1.405
			c8.551,1.66,19.66,0.285,27.663-5.928c6.547,2.771,13.943,3.483,21.499,1.885c3.595-0.757,7.576-2.581,11.207-5.254
			c9.702,4.368,21.374,5.18,31.474-0.746c0.473-0.276,2.192-1.314,4.372-3.02c15.366,9.294,34.419,6.457,49.087-7.49
			c11.412-10.838,15.72-30.493,10.53-45.551c0.715-1.746,1.316-3.549,1.8-5.401c4.851-8.191,6.363-18.228,5.616-25.147
			c-0.913-8.334-2.88-17.352-11.018-26.829c-1.138-1.325-2.843-2.962-4.962-4.543c0.825-13.991-6.127-27.889-17.656-35.486
			c0.008-0.551,0.002-1.022-0.008-1.392c-0.417-13.96-6.32-25.576-16.168-31.853c-6.181-3.959-12.821-6.09-19.488-6.339
			c-2.131-3.504-5.12-6.791-9.43-9.399c-7.486-7.743-15.362-13.092-24.015-16.318c-0.047-0.017-0.094-0.035-0.142-0.052
			c-14.174-5.115-28.764-4.751-42.198,1.056c-9.794,4.162-18.402,11.244-24.407,19.931c-7.355,2.203-13.904,6.258-18.922,11.734
			c-4.454,0.15-8.924,0.98-13.24,2.476c-0.047,0.016-0.093,0.032-0.14,0.049c-6.93,2.482-13.084,6.484-17.798,11.572
			c-0.245,0.264-0.48,0.538-0.704,0.82c-4.28,5.386-6.778,9.892-8.581,15.492c-3.06,8.72-3.761,16.325-4.274,21.89l-0.11,1.188
			c-0.016,0.17-0.029,0.34-0.039,0.511c-0.189,3.238-0.271,6.12-0.287,8.614c-3.434,2.11-6.542,4.697-9.157,7.656
			c-5.451,6.196-9.197,14.676-10.277,23.267c-0.689,5.485-0.298,10.788,1.102,15.628c-0.836,1.222-1.546,2.368-2.128,3.372
			c-3.596,6.162-5.067,14.02-4.213,21.355c-4.17,3.531-7.577,8.057-9.915,13.306c-4.522,10.159-4.382,21.524,0.38,31.174
			c5.513,11.193,16.931,18.71,29.797,19.618C48.374,241.503,55.4,239.721,61.27,236.03z"/>
	</g>
	<path style="fill:#FFFFFF;" d="M61.27,236.03c4.471,4.211,9.812,7.366,15.478,8.771c3.309,0.814,6.681,1.21,10.013,1.21
		c8.882,0,17.484-2.814,23.858-8.047c0.092-0.076,0.183-0.152,0.274-0.228c1.557,0.607,3.183,1.079,4.869,1.405
		c8.551,1.66,19.66,0.285,27.663-5.928c6.547,2.771,13.943,3.483,21.499,1.885c3.595-0.757,7.576-2.581,11.207-5.254
		c9.702,4.368,21.374,5.18,31.474-0.746c0.473-0.276,2.192-1.314,4.372-3.02c15.366,9.294,34.419,6.457,49.087-7.49
		c11.412-10.838,15.72-30.493,10.53-45.551c0.715-1.746,1.316-3.549,1.8-5.401c4.851-8.191,6.363-18.228,5.616-25.147
		c-0.913-8.334-2.88-17.352-11.018-26.829c-1.138-1.325-2.843-2.962-4.962-4.543c0.825-13.991-6.127-27.889-17.656-35.486
		c0.008-0.551,0.002-1.022-0.008-1.392c-0.417-13.96-6.32-25.576-16.168-31.853c-6.181-3.959-12.821-6.09-19.488-6.339
		c-2.131-3.504-5.12-6.791-9.43-9.399c-7.486-7.743-15.362-13.092-24.015-16.318c-0.047-0.017-0.094-0.035-0.142-0.052
		c-14.174-5.115-28.764-4.751-42.198,1.056c-9.794,4.162-18.402,11.244-24.407,19.931c-7.355,2.203-13.904,6.258-18.922,11.734
		c-4.454,0.15-8.924,0.98-13.24,2.476c-0.047,0.016-0.093,0.032-0.14,0.049c-6.93,2.482-13.084,6.484-17.798,11.572
		c-0.245,0.264-0.48,0.538-0.704,0.82c-4.28,5.386-6.778,9.892-8.581,15.492c-3.06,8.72-3.761,16.325-4.274,21.89l-0.11,1.188
		c-0.016,0.17-0.029,0.34-0.039,0.511c-0.189,3.238-0.271,6.12-0.287,8.614c-3.434,2.11-6.542,4.697-9.157,7.656
		c-5.451,6.196-9.197,14.676-10.277,23.267c-0.689,5.485-0.298,10.788,1.102,15.628c-0.836,1.222-1.546,2.368-2.128,3.372
		c-3.596,6.162-5.067,14.02-4.213,21.355c-4.17,3.531-7.577,8.057-9.915,13.306c-4.522,10.159-4.382,21.524,0.38,31.174
		c5.513,11.193,16.931,18.71,29.797,19.618C48.374,241.503,55.4,239.721,61.27,236.03z"/>
	<g>
		<g>
			<g>
				<g>
					<path style="fill:#92216A;" d="M129.727,46.327c0.82-0.043,8.767,1.474,9.606,3.525c2.001-2.358,4.42-4.272,7.681-5.253
						c6.343-1.923,10.357-0.61,16.036,1.932c1.023-1.688,2.251-3.318,3.669-4.82c4.135-4.375,11.747-7.39,17.755-5.97
						c10.349,2.448,13.807,5.848,16.065,16.028c0.005-0.019,0.005-0.019,0.005-0.019c7.271-2.783,14.589-1.451,20.968,2.635
						c6.791,4.329,9.384,12.701,9.611,20.28c0.04,1.477-0.336,7.654-2.409,9.534c1.409,0.204,2.857,0.54,4.339,1.067
						c11.472,4.189,18.05,17.969,15.048,29.483c-0.368,1.648-0.913,3.286-1.587,4.83c3.402-0.633,8.525,2.869,10.666,5.362
						c5.143,5.988,6.828,11.459,7.665,19.099c0.843,7.815-3.514,22.951-13.535,22.952c2.474,2.608,4.529,5.578,5.872,8.407
						c4.713,9.785,1.999,25.323-5.932,32.855c-9.204,8.751-21.73,12.567-33.02,4.911c-2.783-1.91-5.499-4.675-7.746-7.935
						c-0.859,4.646-6.805,9.655-10.071,11.564c-8.459,4.964-19.932,1.063-26.324-5.321c-0.231-0.212-0.417-0.463-0.628-0.698
						c-1.362,4.883-7.045,9.444-11.475,10.377c-8.703,1.842-16.621-1.256-21.669-7.956c-0.611,2.568-2.206,5.009-3.755,6.937
						c-3.959,4.85-12.334,6.135-18.082,5.018c-5.983-1.157-9.71-5.777-11.255-11.189c0.64,14.152-14.548,20.08-27.078,17.001
						c-8.301-2.06-17.196-12.436-17.227-21.853c-0.798,3.754-2.229,7.263-3.852,9.647c-8.881,13.02-28.733,9.177-35.07-3.688
						c-6.017-12.192,0.908-27.835,13.667-31.431c-1.006-1.385-1.567-3.606-1.918-4.629c-1.736-5.034-1.164-11.69,1.523-16.296
						c1.637-2.821,3.887-5.922,6.632-8.327c-6.93-8.801-4.157-23.504,3.062-31.709c4.185-4.738,10.498-8.042,16.836-8.812
						c-0.022-0.141-0.027-0.267-0.005-0.374c0.069-0.372-0.504-4.633-0.408-6.023c0.355-4.339,2.656-8.181,5.041-11.698
						c5.891-8.679,12.183-10.642,22.087-8.651c0.07-0.273,0.149-0.538,0.226-0.814c2.532-7.748,9.648-12.918,17.356-14.244
						c-3.202-6.513,3.833-16.848,8.283-20.716C120.009,48.207,125.029,46.538,129.727,46.327z"/>
					<path style="fill:#9B3775;" d="M155.207,45.15c-7.475-0.663-13.079,3.261-17.03,9.229c-3.525,5.322-4.332,10.525-2.795,16.742
						c0.636,2.564,2.227,6.861,4.445,8.83c7.252-3.959,15.341-3.374,21.168,3.856c0.679-3.131,1.881-6.111,3.552-8.813
						c-3.072-2.063-4.812-9.546-5.088-12.479c-0.527-5.633,0.686-10.904,3.366-15.54C160.24,46.429,157.936,45.379,155.207,45.15z"
						/>
					<path style="fill:#EA5EB5;" d="M72.283,199.949c9.813,3.788,20.859-2.727,23.435-12.158c-0.005-0.028-0.018-0.08-0.018-0.12
						c0.044-2.018-0.065-4.115-0.332-6.194c-0.284-1.211-0.497-2.436-0.616-3.682c-0.823-3.821-2.199-7.542-4.229-10.682
						c-3.086-4.835-9.051-7.134-14.523-7.375c-9.948-0.463-15.328,7.159-17.364,15.991C56.211,186.191,62.641,196.23,72.283,199.949
						z"/>
					<path style="fill:#BC4D8D;" d="M64.285,199.673c0.128,1.268,0.071,2.576-0.185,3.893c0.447-0.989,0.987-1.946,1.727-2.842
						C65.304,200.411,64.784,200.044,64.285,199.673z"/>
					<path style="fill:#BC4D8D;" d="M151.729,174.998c-2.815-3.653-5.057-9.563-4.088-13.73c-3.809,2.093-8.192,3.319-12.543,3.593
						c4.721,4.418,5.42,12.979,3.982,19.579C141.747,179.929,146.585,175.163,151.729,174.998z"/>
					<path style="fill:#BC4D8D;" d="M183.712,165.209c-1.894-6.441-2.04-13.688-0.675-19.833c-0.574-1.744-1.565-3.477-2.335-4.515
						c-1.088-1.484-2.923-1.902-4.186-2.953c-3.149-0.051-6.261-0.744-8.884-1.936c-0.495-0.222-0.95-0.463-1.421-0.689
						c-0.95,0.065-1.861,0.314-2.758,0.655c-0.624,0.253-1.261,0.946-1.914,1.318c0.272,4.531-0.561,8.944-2.895,12.548
						c-0.115,0.175-0.229,0.248-0.362,0.261c-1.09,2.255-2.522,4.404-4.3,6.323c-0.924,0.992-1.957,1.908-3.046,2.715
						c-1.093,5.631,2.208,12.964,6.601,16.397c3.011,2.33,7.05,2.268,10.594,1.805c1.333-0.172,2.51-0.77,3.602-1.48
						C174.48,170.837,178.515,166.9,183.712,165.209z"/>
					<path style="fill:#EA5EB5;" d="M147.348,158.649c7.199-4.057,11.287-11.023,11.976-18.226
						c-0.18-5.917-2.548-11.895-6.067-16.767c-0.099-2.593-2.564-4.516-5.263-5.771c-0.077-0.056-0.152-0.131-0.229-0.202
						c-5.379-4.446-11.761-4.077-18.189-2.932c-11.246,2.019-16.431,14.502-15.85,24.763
						C114.723,157.142,131.446,167.629,147.348,158.649z"/>
					<path style="fill:#BC4D8D;" d="M111.119,148.128c-0.697,1.78-1.578,3.479-2.579,5.003c1.32-0.402,2.663-0.574,3.983-0.46
						C111.915,151.282,111.44,149.768,111.119,148.128z"/>
					<path style="fill:#BC4D8D;" d="M164.621,134.376c-1.43-0.841-2.771-1.77-3.97-2.795c0.326,1.258,0.545,2.521,0.704,3.77
						c0.479-0.267,1.015-0.474,1.45-0.653C163.388,134.487,163.985,134.395,164.621,134.376z"/>
					<path style="fill:#BC4D8D;" d="M166.442,131.403c4.961,2.571,9.166,3.531,14.812,2.855c8.892-1.082,15.27-11.17,11.989-19.476
						c-12.868,4.282-28.082-5.058-31.829-18.12c-0.293-1.01-0.514-2.041-0.678-3.061c-6.591,3.231-7.617,13.26-7.104,19.436
						C154.255,120.344,160.152,128.155,166.442,131.403z"/>
					<path style="fill:#EA5EB5;" d="M193.395,111.811c7.933-2.037,12.213-7.565,13.733-14.235c0.368-6.041,0.307-12.621-1.598-18.31
						c-0.622-1.658-1.362-3.249-2.189-4.758c-1.852-2.985-4.501-5.504-8.237-7.222c-6.171-2.865-12.963-1.814-18.922,0.834
						c-8.899,3.922-12.516,13.456-12.456,22.624C163.785,106.077,179.535,115.34,193.395,111.811z"/>
					<path style="fill:#BC4D8D;" d="M200.594,110.511c-2.1,1.865-4.373,3.217-6.753,4.09c2.883,4.553,0.837,11.503-1.939,15.913
						c6.751-5.329,15.803-6.07,23.456-2.371c-5.691-4.749-9.418-12.523-9.63-20.426c-0.047-1.395,0.027-2.751,0.206-4.091
						C204.606,106.153,202.841,108.479,200.594,110.511z"/>
					<path style="fill:#BC4D8D;" d="M179.941,137.716c1.148,1.024,2.055,2.343,2.811,3.737c0.29,0.534,0.563,1.284,0.785,2.083
						c0.365-1.322,0.776-2.607,1.315-3.787c0.769-1.761,1.706-3.343,2.736-4.759C185.348,136.483,182.68,137.357,179.941,137.716z"
						/>
					<path style="fill:#EA5EB5;" d="M186.366,142.931c-5.535,12.61,1.315,30.871,14.098,35.672c2.163,0.817,4.31,1.178,6.404,1.19
						c0.253-0.104,0.504-0.106,0.71-0.023c11.718-0.442,21.378-12.456,21.873-23.707c0.199-4.725-1.303-12.221-4.474-18.214
						c-0.168,0.078-0.394,0.065-0.553-0.147C212.676,124.218,193.802,126.037,186.366,142.931z"/>
					<path style="fill:#EA5EB5;" d="M133.011,164.911c-8.059-0.067-15.789-3.467-19.719-10.681c-2.347-0.334-4.444,0.06-6.285,0.98
						c-1.442,1.746-3.101,3.251-4.963,4.426c-2.796,3.885-4.293,9.145-4.469,13.471c-0.408,8.923,4.117,16.203,11.796,20.457
						c8.383,4.619,18.819,4.114,24.81-4.094C139.514,182.184,138.672,171.603,133.011,164.911z"/>
					<path style="fill:#BC4D8D;" d="M89.329,162.145c2.265,2.044,4.21,4.615,5.674,7.435c0.141-0.932,0.312-1.86,0.537-2.772
						c0.428-1.729,1.312-3.562,2.482-5.34C95.412,162.323,92.506,162.583,89.329,162.145z"/>
					<path style="fill:#EA5EB5;" d="M83.564,157.344c10.818,5.253,21.495,0.136,25.923-10.607c0.479-1.168,0.815-2.354,1.034-3.544
						c-0.141-2.028-0.129-4.012,0.055-5.983c-0.582-3.712-2.206-7.292-4.394-10.512c-0.53-0.754-1.528-1.898-2.769-3.089
						c-8.213-5.566-15.79-6.218-23.839,1.327C70.266,133.646,71.929,151.685,83.564,157.344z"/>
					<path style="fill:#BC4D8D;" d="M106.095,123.713c0.165,0.183,0.196,0.429,0.159,0.661c2.052,2.05,3.926,4.628,5.216,7.408
						c0.947-3.987,2.537-7.688,4.748-10.833c-3.662,2.261-7.709,2.396-11.621,1.225
						C105.097,122.673,105.597,123.157,106.095,123.713z"/>
					<path style="fill:#BC4D8D;" d="M140.941,111.112c4.131,0.61,7.887,2.691,11.039,5.625c-0.381-1.814-0.582-3.72-0.598-5.699
						c-0.05-3.86,1.137-8.768,3.061-12.169c0.258-0.477,3.977-6.805,6.077-6.897c-0.239-2.433-0.133-4.829,0.274-7.15
						c-6.904-5.76-15.325-6.183-22.971-0.521c-6.313,4.655-12.143,19.553-6.282,26.862
						C134.397,110.647,137.544,110.607,140.941,111.112z"/>
					<path style="fill:#9B3775;" d="M199.816,52.052c-2.407-5.032-4.246-8.92-9.565-11.588c-5.667-2.845-12.758-2.132-18.344,0.222
						c-7.112,3.001-9.989,10.168-10.96,17.213c-0.413,3.023,0.957,13.406,4.442,15.763c4.717-6.719,12.415-11.306,21.39-11.232
						c0.596,0.008,1.198,0.048,1.759,0.082C189.491,57.735,195.607,53.832,199.816,52.052z"/>
					<path style="fill:#9B3775;" d="M228.447,70.285c-1.235-5.418-4.592-9.754-8.866-13.094c-7.121-5.583-27.297-6.032-29.872,5.442
						c14.757,1.881,20.54,16.899,19.225,30.329c-0.057,0.745-0.151,1.462-0.238,2.195c3.83-7.101,10.977-11.801,19.205-11.039
						C230.787,81.175,229.139,73.335,228.447,70.285z"/>
					<path style="fill:#9B3775;" d="M244.672,120.344c3.427-9.337,2.166-21.336-5.616-28.412c-3.506-3.195-8.357-4.685-12.886-5.612
						c-9.42-1.914-15.716,9.296-17.453,16.909c-3.042,13.257,6.785,24.731,19.357,26.363
						C235.824,130.588,241.557,126.341,244.672,120.344z"/>
					<path style="fill:#9B3775;" d="M262.524,141.734c-0.552-5.133-2.386-9.323-5.442-13.432c-1.238-1.695-7.525-7.017-10.707-6.575
						c-0.367,0.048-0.623-0.083-0.778-0.291c-1.992,3.645-4.844,6.73-8.397,8.672c-5.146,2.825-10.133,3.229-14.564,1.966
						c6.503,6.493,9.807,19.325,9.229,26.13c-0.054,0.577-0.169,1.148-0.247,1.727c6.794-2.361,13.72,1.142,18.916,6.271
						C261.344,163.221,263.598,151.613,262.524,141.734z"/>
					<path style="fill:#9B3775;" d="M216.143,207.736c8.782,9.605,22.776,7.871,31.971,0.077c8.313-7.085,9.811-18.746,7.775-28.753
						c-1.961-9.641-14.062-20.33-24.357-18.497c-2.118,12.151-12.119,21.134-24.016,22.032
						C206.02,191.626,210.168,201.206,216.143,207.736z"/>
					<path style="fill:#9B3775;" d="M197.689,214.518c4.247-0.586,7.417-3.653,9.946-6.828c0.488-0.596,1.259-2.871,1.981-3.735
						c-4.108-6.477-6.384-14.517-4.248-21.294c-2.054-0.024-4.136-0.27-6.225-0.784c-7.657-1.907-12.506-7.981-14.991-15.314
						c-14.71,7.092-16.84,26.724-8.625,39.669C180.225,213.645,189.564,215.67,197.689,214.518z"/>
					<path style="fill:#9B3775;" d="M153.495,217.837c6.337,2.23,16.806-0.665,19.452-7.659c-6.815-8.204-7.037-22.671-1.829-33.155
						c-1.678,1.255-3.438,2.266-5.983,2.907c-3.975,0.998-7.485-0.149-10.807-2.347c-0.41-0.279-0.821-0.619-1.227-1.026
						c-12.363,1.226-16.03,18.919-12.895,28.53C142.346,211.628,147.209,215.64,153.495,217.837z"/>
					<path style="fill:#BC4D8D;" d="M115.989,220.925c6.845,5.087,22.288,0.978,24.142-7.974c-0.817-1.083-1.545-2.275-2.19-3.545
						c-2.904-5.794-3.238-12.039-1.665-18.009c-5.746,9.231-16.164,10.155-26.005,6.655
						C106.88,206.7,108.031,215.007,115.989,220.925z"/>
					<path style="fill:#BC4D8D;" d="M106.938,212.602c-1.093-5.109-0.321-10.776,2.32-14.926c-0.449-0.18-0.88-0.329-1.324-0.527
						c-5.077-2.188-8.591-5.938-10.723-10.37c-0.02,0.022-0.025,0.049-0.029,0.079c-0.762,8.26-8.518,15.278-16.644,16.936
						c-4.63,0.949-9.58-0.156-13.867-2.559C58.455,229.212,107.227,239.985,106.938,212.602z"/>
					<path style="fill:#BC4D8D;" d="M25.896,210.984c2.926,11.913,16.534,14.626,26.242,9.814c5.12-2.526,7.481-7.673,8.798-12.904
						c0.474-1.97,0.567-3.968,0.289-5.994c-0.224-0.77-0.462-1.543-0.705-2.298c-0.614-3.195-1.851-6.128-4.302-8.578
						c-3.301-3.248-8.263-5.058-13.042-4.879C29.8,185.213,23.084,199.498,25.896,210.984z"/>
					<path style="fill:#9B3775;" d="M40.152,162.35c-2.634,3.713-4.997,16.452-0.451,20.798c5.177-0.882,11.038,0.629,15.749,3.677
						c-0.286-1.389-0.416-2.819-0.353-4.258c0.512-10.477,5.65-20.541,14.388-24.057C60.419,148.628,47.396,152.075,40.152,162.35z"
						/>
					<path style="fill:#BC4D8D;" d="M48.819,124.803c-3.146,3.604-5.127,9.794-5.962,14.365c-0.28,2.189-0.326,4.375-0.118,6.569
						c-0.186-2.359,2.555,7.395,2.474,7.483c0.081-0.088,0.195-0.119,0.307-0.136c2.19-1.597,4.641-2.687,7.272-2.871
						c7.088-0.499,13.604,1.808,17.105,8.129c2.419-0.903,5.073-1.325,7.994-1.112c-2.546-2.167-4.469-5.007-5.775-8.623
						c-2.054-5.72-1.483-15.428,1.883-20.567c1.891-2.861,4.062-5.246,6.413-7.105C71.298,112.731,56.444,116.039,48.819,124.803z"
						/>
					<path style="fill:#9B3775;" d="M70.739,97.72c-2.796,4.095-5.867,9.812-4.463,14.998c0.084,0.319,0.061,0.668-0.034,0.958
						c5.604-0.071,10.999,1.951,14.637,6.895c4.502-3.361,9.61-4.732,14.644-3.581c-7.356-6.612-7.716-19.678-5.322-28.784
						C81.67,88.869,75.947,90.158,70.739,97.72z"/>
					<path style="fill:#EA5EB5;" d="M95.354,83.368c-10.712,13.467,4.142,46.844,21.8,36.367c3.075-3.83,7.136-6.72,12.17-8.095
						c-4.725-5.838-1.903-18.267,2.019-24.254c-2.814-5.083-7.105-8.094-12.421-10.533C109.896,72.717,101.478,75.676,95.354,83.368
						z"/>
					<path style="fill:#9B3775;" d="M109.51,71.88c1.314-0.151,2.64-0.202,3.951-0.113c6.48,0.423,17.57,6.522,19.298,13.785
						c1.769-1.904,3.651-3.485,5.634-4.748c-2.498-1.761-3.958-6.162-5.033-8.584c-2.057-4.621-1.12-10.7,1.213-14.981
						c1.194-2.215,2.447-4.384,3.924-6.338c-5.025-2.808-11.151-2.318-16.171,0.245C116.016,54.346,105.638,63.376,109.51,71.88z"/>
					<path style="opacity:0.7;fill:#6B346B;" d="M64.285,199.673c0.128,1.268,0.071,2.576-0.185,3.893
						c0.447-0.989,0.987-1.946,1.727-2.842C65.304,200.411,64.784,200.044,64.285,199.673z"/>
					<path style="opacity:0.7;fill:#6B346B;" d="M151.729,174.998c-2.815-3.653-5.057-9.563-4.088-13.73
						c-3.809,2.093-8.192,3.319-12.543,3.593c4.721,4.418,5.42,12.979,3.982,19.579
						C141.747,179.929,146.585,175.163,151.729,174.998z"/>
					<path style="opacity:0.7;fill:#BC4D8D;" d="M161.538,137.258c0.272,4.531-0.561,8.944-2.895,12.548
						c-0.115,0.175-0.229,0.248-0.362,0.261c-1.09,2.255-2.522,4.404-4.3,6.323c-0.924,0.992-1.957,1.908-3.046,2.715
						c-1.093,5.631,2.208,12.964,6.601,16.397c3.011,2.33,7.05,2.268,10.594,1.805c1.333-0.172,2.51-0.77,3.602-1.48
						c2.748-4.99,6.783-8.927,11.98-10.618c-1.894-6.441-2.04-13.688-0.675-19.833c-0.574-1.744-1.565-3.477-2.335-4.515
						c-1.088-1.484-2.923-1.902-4.186-2.953c-3.149-0.051-6.261-0.744-8.884-1.936c-0.495-0.222-0.95-0.463-1.421-0.689
						c-0.95,0.065-1.861,0.314-2.758,0.655C162.828,136.193,162.191,136.886,161.538,137.258z"/>
					<path style="opacity:0.7;fill:#6B346B;" d="M111.119,148.128c-0.697,1.78-1.578,3.479-2.579,5.003
						c1.32-0.402,2.663-0.574,3.983-0.46C111.915,151.282,111.44,149.768,111.119,148.128z"/>
					<path style="opacity:0.7;fill:#6B346B;" d="M164.621,134.376c-1.43-0.841-2.771-1.77-3.97-2.795
						c0.326,1.258,0.545,2.521,0.704,3.77c0.479-0.267,1.015-0.474,1.45-0.653C163.388,134.487,163.985,134.395,164.621,134.376z"/>
					<path style="opacity:0.7;fill:#6B346B;" d="M200.594,110.511c-2.1,1.865-4.373,3.217-6.753,4.09
						c2.883,4.553,0.837,11.503-1.939,15.913c6.751-5.329,15.803-6.07,23.456-2.371c-5.691-4.749-9.418-12.523-9.63-20.426
						c-0.047-1.395,0.027-2.751,0.206-4.091C204.606,106.153,202.841,108.479,200.594,110.511z"/>
					<path style="opacity:0.7;fill:#6B346B;" d="M179.941,137.716c1.148,1.024,2.055,2.343,2.811,3.737
						c0.29,0.534,0.563,1.284,0.785,2.083c0.365-1.322,0.776-2.607,1.315-3.787c0.769-1.761,1.706-3.343,2.736-4.759
						C185.348,136.483,182.68,137.357,179.941,137.716z"/>
					<path style="opacity:0.7;fill:#BC4D8D;" d="M107.007,155.21c-1.442,1.746-3.101,3.251-4.963,4.426
						c-2.796,3.885-4.293,9.145-4.469,13.471c-0.408,8.923,4.117,16.203,11.796,20.457c8.383,4.619,18.819,4.114,24.81-4.094
						c5.333-7.287,4.49-17.868-1.171-24.56c-8.059-0.067-15.789-3.467-19.719-10.681C110.945,153.896,108.848,154.29,107.007,155.21
						z M113.442,161.818c2.874-1.086,6.359,0.183,8.928,1.479c3.238,1.612,6.278,4.54,8.092,7.875
						c2.338,3.682,3.109,7.851,1.017,12.134c-1.862,3.837-6.504,5.895-10.611,5.733c-8.99-0.344-14.235-9.315-14.584-17.513
						c-0.077-1.913,0.542-3.652,1.385-5.328C108.827,163.844,111.141,162.71,113.442,161.818z"/>
					<path style="opacity:0.7;fill:#6B346B;" d="M89.329,162.145c2.265,2.044,4.21,4.615,5.674,7.435
						c0.141-0.932,0.312-1.86,0.537-2.772c0.428-1.729,1.312-3.562,2.482-5.34C95.412,162.323,92.506,162.583,89.329,162.145z"/>
					<path style="opacity:0.7;fill:#6B346B;" d="M106.095,123.713c0.165,0.183,0.196,0.429,0.159,0.661
						c2.052,2.05,3.926,4.628,5.216,7.408c0.947-3.987,2.537-7.688,4.748-10.833c-3.662,2.261-7.709,2.396-11.621,1.225
						C105.097,122.673,105.597,123.157,106.095,123.713z"/>
					<path style="opacity:0.7;fill:#6B346B;" d="M110.27,198.052c-3.39,8.648-2.239,16.955,5.719,22.873
						c6.845,5.087,22.288,0.978,24.142-7.974c-0.817-1.083-1.545-2.275-2.19-3.545c-2.904-5.794-3.238-12.039-1.665-18.009
						C130.528,200.628,120.111,201.552,110.27,198.052z"/>
					<path style="opacity:0.7;fill:#BC4D8D;" d="M66.672,201.235c-8.217,27.977,40.554,38.75,40.266,11.367
						c-1.093-5.109-0.321-10.776,2.32-14.926c-0.449-0.18-0.88-0.329-1.324-0.527c-5.077-2.188-8.591-5.938-10.723-10.37
						c-0.02,0.022-0.025,0.049-0.029,0.079c-0.762,8.26-8.518,15.278-16.644,16.936C75.909,204.743,70.96,203.638,66.672,201.235z"
						/>
					<path style="opacity:0.7;fill:#6B346B;" d="M66.672,201.235c-8.217,27.977,40.554,38.75,40.266,11.367
						c-1.093-5.109-0.321-10.776,2.32-14.926c-0.449-0.18-0.88-0.329-1.324-0.527c-5.077-2.188-8.591-5.938-10.723-10.37
						c-0.02,0.022-0.025,0.049-0.029,0.079c-0.762,8.26-8.518,15.278-16.644,16.936C75.909,204.743,70.96,203.638,66.672,201.235z"
						/>
					<path style="opacity:0.7;fill:#6B346B;" d="M70.739,97.72c-2.796,4.095-5.867,9.812-4.463,14.998
						c0.084,0.319,0.061,0.668-0.034,0.958c5.604-0.071,10.999,1.951,14.637,6.895c4.502-3.361,9.61-4.732,14.644-3.581
						c-7.356-6.612-7.716-19.678-5.322-28.784C81.67,88.869,75.947,90.158,70.739,97.72z M80.491,97.351
						c2.506-1.346,5.435-0.612,6.98,1.768c1.18,1.874,0.814,4.345,0.191,6.307c-0.24,0.752-0.657,1.397-1.198,1.896
						c-1.02,1.789-2.519,3.16-4.804,3.567c-2.346,0.398-4.46-0.784-5.111-3.113C75.472,104,76.885,99.275,80.491,97.351z"/>
					<path style="opacity:0.7;fill:#6B346B;" d="M122.327,51.146c5.02-2.563,11.146-3.053,16.171-0.245
						c-1.477,1.954-2.73,4.123-3.924,6.338c-0.057,0.109-0.116,0.239-0.172,0.365c0.054-0.289,0.147-0.598,0.154-0.888
						c0.062-3.104-2.293-4.902-5.108-5.331c-7.151-1.058-11.993,7.422-11.935,13.581c0.006,0.456,2.283,5.489,5.102,5.324
						c4.757-0.286,8.223-3.483,10-7.599c-0.653,3.205-0.534,6.653,0.746,9.528c1.076,2.422,2.536,6.823,5.033,8.584
						c-1.983,1.263-3.865,2.844-5.634,4.748c-1.729-7.262-12.818-13.362-19.298-13.785c-1.311-0.088-2.637-0.038-3.951,0.113
						C105.638,63.376,116.016,54.346,122.327,51.146z"/>
					<path style="opacity:0.5;fill:#F473C3;" d="M50.504,158.782c-1.648,2.254-0.958,4.733,0.412,6.863
						c1.958,3.09,7.219,1.931,8.304-1.301c0.319-0.993,0.435-2.133,0.217-3.203c0.358-2.534-1.956-5.42-4.702-4.666
						C53.092,156.925,51.562,157.351,50.504,158.782z"/>
					<path style="fill:#BC4D8D;" d="M63.186,124.145c0.846-0.146,1.726-0.084,2.478,0.23c1.996,0.768,2.996,2.693,2.905,4.766
						c-0.101,2.377-0.669,4.821-1.751,6.922c-1.758,3.417-4.104,5.594-7.871,6.631c-4.597,1.271-8.256-3.458-8.036-7.559
						c0.16-3.368,1.941-5.717,4.284-7.922C57.231,125.274,60.311,123.443,63.186,124.145z"/>
					<path style="fill:#F473C3;" d="M46.437,197.787c2.383-2.135,6.184-2.142,8.332,0.526c0.455,0.555,0.814,1.192,1.162,1.818
						c0.126,0.317,0.184,0.652,0.279,0.973c0.594,1.134,0.885,2.32,0.76,3.709c-0.249,2.329-1.73,4.375-3.847,5.348
						c-1.619,0.738-3.476,0.79-5.13,0.153c-2.329-0.922-3.482-2.789-4.12-5.08c-0.397-1.42-0.085-3.023,0.371-4.397
						c0.216-0.645,0.62-1.224,0.994-1.796c0.176-0.208,0.365-0.388,0.542-0.588c-0.016,0.025-0.048,0.053-0.08,0.087
						c0.055-0.078,0.132-0.135,0.208-0.218c0.139-0.138,0.264-0.288,0.419-0.442C46.378,197.838,46.395,197.82,46.437,197.787z"/>
					<path style="opacity:0.5;fill:#F473C3;" d="M230.475,178.156c-6.503,3.369-3.919,20.261,5.494,20.366
						c14.433,0.173,5.464-25.635-5.29-20.46C230.606,178.092,230.541,178.137,230.475,178.156z"/>
					<path style="fill:#F473C3;" d="M175.459,119.318c0.474,0.002,0.363,0.005-0.312,0.028c0.982-0.07,1.707,0.043,2.645,0.335
						c1.788,0.544,2.865,2.646,2.688,4.421c-0.201,1.996-1.68,3.305-3.541,3.78c-1.218,0.311-2.352,0.047-3.437-0.526
						c-1.658-0.89-2.837-2.314-2.635-4.325C171.12,120.633,173.188,119.238,175.459,119.318z"/>
					<path style="fill:#F473C3;" d="M145.945,87.329c0.348-0.146,0.691-0.183,1.026-0.214c1.496-0.529,3.303-0.031,4.067,1.686
						c0.358,0.795,0.608,1.645,0.682,2.533c0.112,1.665-0.345,2.861-1.16,4.275c-0.85,1.461-2.104,2.769-3.5,3.719
						c-2.889,2.007-6.579,0.71-7.387-2.778C138.726,92.34,142.406,88.762,145.945,87.329z"/>
					<path style="opacity:0.5;fill:#F473C3;" d="M153.113,56.102c0.882,0.152,1.652,0.756,2.089,1.61
						c0.074,0.125,0.174,0.249,0.261,0.385c-0.797-1.449,0.065-0.004,0.214,0.414c-0.05-0.029-0.095-0.063-0.141-0.104
						c1.074,2.46,0.001,5.495-2.997,5.994c-3.259,0.53-5.619-2.687-4.599-5.666c0.272-0.836,0.853-1.572,1.585-2.031
						C150.722,55.96,151.996,55.765,153.113,56.102z"/>
					<g>
						<path style="fill:#FFBBDC;" d="M185.838,79.198c4.261,3.408,7.73,23.399-1.81,16.612
							C179.473,92.565,180.914,75.275,185.838,79.198C188.154,81.034,184.553,78.174,185.838,79.198z"/>
						<path style="fill:#FFBBDC;" d="M192.181,71.176c1.479,2.301-1.153,6.959-4.576,5.103
							C180.708,72.512,190.101,65.48,192.181,71.176C191.616,70.27,191.355,68.894,192.181,71.176z"/>
						<path style="fill:#FFBBDC;" d="M106.218,88.695c3.804,4.755,4.622,28.422-4.962,18.205
							C96.507,101.83,100.967,82.139,106.218,88.695C108.405,91.44,104.58,86.647,106.218,88.695z"/>
						<path style="fill:#FFBBDC;" d="M116.931,81.1c1.236,2.24-2.357,3.863-3.593,1.648C112.098,80.504,115.706,78.887,116.931,81.1
							z"/>
						<path style="fill:#FFBBDC;" d="M142.44,130.512c0.331,7.867-8.907,7.962-12.46,2.536
							C120.661,118.749,145.151,114.642,142.44,130.512C142.466,130.729,143.471,124.543,142.44,130.512z"/>
						<path style="fill:#FFBBDC;" d="M140.866,142.843c4.033,1.688,1.301,8.439-2.951,5.797
							C136.359,147.665,135.271,140.501,140.866,142.843C141.711,143.187,138.869,142.003,140.866,142.843z"/>
						<path style="fill:#FFBBDC;" d="M93.983,142.344c5.475-2.032,17.276,3.177,8.479,8.506
							C93.122,156.466,84.298,143.798,93.983,142.344C95.271,141.872,92.037,142.628,93.983,142.344z"/>
						<path style="fill:#FFBBDC;" d="M90.909,138.202c-1.171,4.087-6.46,3.111-4.889-1.902
							C88.852,133.766,90.478,134.402,90.909,138.202C90.909,138.202,92.201,135.047,90.909,138.202z"/>
						<path style="fill:#FFBBDC;" d="M116.914,166.326c8.221,1.439,3.603,10.815,0.31,13.777
							C112.518,184.28,103.535,163.977,116.914,166.326C119.144,166.714,114.49,165.905,116.914,166.326z"/>
						<path style="fill:#FFBBDC;" d="M123.257,182.052c-3.417-0.99-4.412,0.209-3.004,3.541
							C123.582,186.832,124.576,185.64,123.257,182.052C122.182,181.327,124.515,182.914,123.257,182.052z"/>
						<path style="fill:#FFBBDC;" d="M83.153,172.235c1.449,1.415,3.254,4.982,2.591,7.318
							C81.035,197.034,70.641,160.219,83.153,172.235C84.249,173.3,81.993,171.128,83.153,172.235z"/>
						<path style="fill:#FFBBDC;" d="M81.902,187.261c1.411,2.57-2.737,4.424-4.155,1.888
							C76.315,186.566,80.48,184.721,81.902,187.261z"/>
						<path style="fill:#FFBBDC;" d="M204.774,141.906c-5.845-2.831-9.789,8.662-3.18,11.183
							C207.711,156.539,210.642,144.717,204.774,141.906C203.197,141.138,206.498,142.713,204.774,141.906z"/>
						<path style="fill:#FFBBDC;" d="M210.89,158.983c1.303,2.359-2.493,4.059-3.793,1.713
							C205.774,158.345,209.59,156.661,210.89,158.983z"/>
					</g>
					<g style="opacity:0.5;">
						<path style="fill:#EA5EB5;" d="M199.184,202.091c-0.361,1.637-1.524,2.771-3.291,2.666c-0.601-0.038-1.262-0.181-1.927-0.375
							c-3.868-0.552-7.211-2.906-8.987-6.601c-0.376-0.788-0.293-1.861,0.27-2.566C189.7,189.674,200.682,195.248,199.184,202.091z"
							/>
						<path style="fill:#EA5EB5;" d="M187.051,187.413c0.022,0.068,0.056,0.124,0.09,0.188c0.888,1.533-0.413,3.513-2.01,3.781
							c-1.633,0.266-3.446-1.203-3.122-2.947c0.001-0.063,0.027-0.145,0.042-0.211C182.552,185.581,185.719,185.116,187.051,187.413
							z"/>
						<path style="fill:#EA5EB5;" d="M153.391,188.066c1.085,1.281,2.152,2.35,3.036,3.833c0.092,0.149,0.16,0.307,0.232,0.47
							c1.306,1.452,2.245,3.049,2.265,5.255c0.051,2.903-3.369,4.123-5.695,3.276c-4.933-1.83-7.017-8.414-4.224-12.736
							C149.981,186.64,152.288,186.752,153.391,188.066z"/>
						<path style="fill:#EA5EB5;" d="M163.178,203.431c1.667,3.03-3.204,5.206-4.878,2.218
							C156.631,202.625,161.506,200.459,163.178,203.431z"/>
						<path style="fill:#EA5EB5;" d="M82.585,209.668c2.026,0.005,4.117,0.731,6.043,1.331c1.993,0.619,3.841,1.621,5.299,3.091
							c1.195,1.214,0.849,3.557-0.452,4.507c-0.044,0.04-0.074,0.045-0.11,0.068c-0.783,1.379-2.207,2.143-3.86,2.585
							c-3.794,1.019-8.794-0.389-11.38-3.325c-1.387-1.542-1.949-4.554-0.619-6.29C78.751,209.998,80.642,209.68,82.585,209.668z"/>
						<path style="fill:#EA5EB5;" d="M97.311,218.267c0.146-0.001,0.309-0.012,0.455-0.014c1.731-0.08,3.057,1.599,1.977,3.21
							c-0.083,0.116-0.163,0.229-0.248,0.343c-0.403,0.595-1.324,1.074-2.044,0.918c-0.078-0.016-0.156-0.031-0.222-0.052
							c-1.34-0.301-2.181-1.42-1.716-2.811c0.02-0.061,0.044-0.128,0.064-0.197C95.814,219.005,96.568,218.299,97.311,218.267z"/>
						<path style="fill:#EA5EB5;" d="M112.889,205.168c-0.561,2.3,0.062,4.73,1.23,6.796c0.378,1.516,1.327,2.871,2.906,3.367
							c2.371,0.727,5.393-0.344,6.035-2.986c0.528-2.161,0.401-4.272-1.031-6.09c-0.724-0.899-1.688-1.659-2.77-2.068
							c-0.247-0.09-1.764-0.505-1.348-0.388c-0.695-0.198-1.386-0.335-2.099-0.412C114.683,203.264,113.178,203.98,112.889,205.168z
							"/>
						<path style="fill:#EA5EB5;" d="M256.607,139.279c0.915,1.205,1.619,2.577,1.97,4.034c0.03,0.06,0.085,0.119,0.117,0.188
							c0.928,1.666,0.384,4.207-0.749,5.602c-0.986,1.184-2.751,1.634-4.052,0.613c-0.035-0.023-0.07-0.064-0.101-0.084
							c-0.641-0.317-1.129-0.862-1.391-1.578c-1.513-2.285-1.549-5.272-0.854-7.985
							C252.105,137.879,255.373,137.653,256.607,139.279z"/>
						<path style="fill:#EA5EB5;" d="M213.042,61.331c2.677,0.711,5.623,2.933,5.864,5.891c0.147,1.68-0.787,3.297-2.559,3.588
							c-0.462,0.074-0.893,0.031-1.328-0.08c-0.86,0.319-1.847,0.398-2.682,0.314c-3.243-0.314-5.896-2.982-5.75-6.26
							C206.711,61.305,210.284,60.579,213.042,61.331z"/>
						<path style="fill:#EA5EB5;" d="M229.012,95.204c-1.56,1.106-2.948,3.11-2.47,5.135c0.171,0.648,0.48,1.295,0.88,1.863
							c0.038,0.276,0.108,0.55,0.206,0.833c1.128,3.034,5.01,3.904,7.48,1.946c1.452-1.132,2.349-3.041,2.354-4.878
							c0.008-1.835-0.672-4.254-2.412-5.222c-1.038-0.585-2.161-1.056-3.377-0.775c-0.357,0.08-0.727,0.168-1.076,0.321
							c0.678-0.196,0.565-0.156-0.331,0.113C229.814,94.695,229.403,94.937,229.012,95.204z"/>
						<path style="fill:#EA5EB5;" d="M183.788,48.888c0.437,1.907-0.721,3.745-2.345,4.719c-0.153,0.156-0.295,0.284-0.433,0.413
							c-1.38,1.119-2.97,1.434-4.671,0.945c-2.024-0.607-2.675-3.089-2.038-4.892c0.484-1.365,1.569-2.94,2.806-3.756
							C179.817,44.598,183.027,45.646,183.788,48.888z"/>
						<path style="fill:#EA5EB5;" d="M130.595,55.273c1.579,2.846-3.018,4.89-4.583,2.08
							C124.439,54.523,129.038,52.473,130.595,55.273z"/>
						<path style="fill:#EA5EB5;" d="M158.97,50.352c1.463,2.619-2.779,4.521-4.231,1.914
							C153.277,49.641,157.526,47.743,158.97,50.352z"/>
						<path style="fill:#EA5EB5;" d="M61.706,127.455c0.194-0.031,0.378-0.039,0.577-0.04c0.001,0.017,0.064-0.013,0.188-0.021
							c0.934-0.114,1.701,0.254,2.281,0.821c0.013,0.012,0.01,0.041,0.034,0.063c0.115,0.107,0.25,0.23,0.346,0.376
							c0.332,0.434,0.52,0.977,0.504,1.509c0.033,0.764-0.263,1.497-0.934,2.028c-0.065,0.109-0.125,0.24-0.122,0.251
							c-1.604,3.686-7.314,1.503-5.853-2.308c0.37-1.035,0.952-1.794,1.922-2.349C60.991,127.611,61.345,127.533,61.706,127.455z"/>
					</g>
				</g>
			</g>
			<path style="fill:#85AF4F;" d="M203.341,74.508c0,0-0.105-1.577-0.296-4.505c-0.189-1.46-0.01-3.324-0.546-5.384
				c-0.604-1.996-1.262-4.292-2.027-6.878c-0.94-2.491-2.555-5.08-3.962-7.952c-1.761-2.683-3.987-5.417-6.357-8.226
				c-5.342-5.12-12.033-10.354-20.54-13.166c-8.273-2.653-18.796-2.478-27.373,1.919c-8.883,4.292-16.364,12.698-19.03,22.833
				c-0.713,2.514-0.6,5.208-1.004,7.828c0.041,2.628,0.813,4.675,1.676,7.552c1.873,5.346,4.429,10.691,7.616,15.403
				c2.999,4.538,7.796,8.922,10.594,8.111c0.354,0.061,0.747-0.052,1.11-0.346c0.38-0.269,0.792-0.205,1.186-0.645l1.204-1.138
				l0.322-0.258l0.081-0.079c-0.181,0.235,0.479-0.612-0.358,0.507l0.153-0.246l0.597-1.019c1.171-1.609,0.535-2.001,0.993-2.835
				c0.048-1.323,0.361-2.516,0.255-3.916c-0.111-5.42-0.972-11.554-3.74-15.704c-1.619-2.93-3.238-4.807-4.958-6.8
				c-1.912-1.961-4.002-3.644-6.28-4.97c-9.074-5.392-21.698-2.839-27.363,5.162c-2.668,3.625-3.617,9.518-2.16,12.332
				c0.68,1.39,2.052,1.913,2.716,1.72c0.261-0.114,0.274-0.103,0.453-0.437c0.043-0.409,0.118-1.211-0.316-2.133l-0.249-0.695
				l-0.046-0.164c-0.127-0.238,0.145,0.222,0.091,0.141l-0.064-0.108l-0.259-0.44c-0.337-0.535-0.698-1.238-1.021-1.623
				c-0.561-0.662-1.147-1.378-2.052-2.074c-1.669-1.287-3.628-2.326-5.782-2.87c-4.277-1.147-8.925-0.896-13.032,0.311
				c-4.121,1.234-7.756,3.439-10.675,6.126c-2.397,2.499-5.229,6.415-6.244,9.513c-2.951,6.566-4.091,13.353-4.996,18.649
				c-1.555,10.82-1.629,17.148-1.629,17.148s-0.734-6.275-0.09-17.33c0.522-5.536,0.979-12.188,3.706-19.877
				c1.33-4.198,3.08-7.205,6.229-11.167c3.134-3.382,7.337-6.117,12.15-7.84c4.819-1.67,10.334-2.304,15.944-1.122
				c2.805,0.587,5.601,1.811,8.136,3.589c1.248,0.858,2.466,2.061,3.606,3.448c0.519,0.647,0.775,1.141,1.177,1.711l0.285,0.424
				l0.065,0.108l0.208,0.368l0.123,0.29l0.518,1.176c0.695,1.509,1.141,3.537,0.791,5.813c-0.402,2.316-2.253,4.698-4.637,5.561
				c-4.746,1.705-9.388-0.992-11.441-4.516c-1.06-1.772-1.577-3.656-1.819-5.504c-0.154-1.816-0.082-4.114,0.196-5.298
				c0.385-3.306,1.875-6.769,3.771-9.648c8.031-11.682,25.139-15.126,37.715-8.038c3.112,1.714,5.897,3.893,8.366,6.375
				c2.446,2.613,4.777,5.612,6.208,8.152c4.119,6.422,5.062,13.316,5.315,20.306c0.089,1.731-0.301,3.648-0.475,5.444
				c-0.54,2.133-1.454,5.009-2.264,5.912l-0.613,0.988l-0.158,0.264c-0.899,1.208-0.33,0.406-0.566,0.703l-0.135,0.133l-0.563,0.512
				l-2.286,2.006c-0.732,0.677-1.944,1.081-2.927,1.585c-1.001,0.542-2.095,0.855-3.352,0.905
				c-4.874,0.663-9.118-1.718-11.735-4.079c-2.904-2.408-4.959-5.161-6.87-7.917c-3.657-5.595-6.31-11.44-8.349-17.557
				c-0.859-2.891-1.99-6.699-1.931-10.063c0.455-3.273,0.486-6.641,1.393-9.763c3.429-12.756,13.207-22.281,23.824-26.778
				c11.1-4.809,22.274-4.168,31.746-0.749c9.414,3.511,16.163,9.82,21.353,15.692c2.295,3.198,4.387,6.258,6.003,9.203
				c1.259,3.177,2.692,5.945,3.47,8.631c0.537,2.763,1.024,5.223,1.438,7.373c0.316,2.117-0.051,3.935-0.02,5.404
				C203.404,72.933,203.341,74.508,203.341,74.508z"/>
		</g>
		<path style="fill:#85AF4F;" d="M238.565,126.217c0,0,0.938,0.358,2.708,1.014c1.859,0.48,4.243,1.806,7.238,4.049
			c1.413,1.156,2.686,2.697,4.249,4.272c1.342,1.719,2.632,3.76,3.946,5.951c2.175,4.601,4.227,10.294,3.828,16.91
			c-0.498,6.653-2.974,13.489-8.974,19.067c-5.598,5.255-14.049,8.707-22.889,7.326c-2.182-0.287-4.278-1.187-6.43-1.824
			c-2.107-0.878-4.322-2.725-5.784-4.007c-3.169-2.853-5.966-6.006-8.347-9.799c-1.16-1.93-2.264-3.951-2.964-6.501
			c-0.733-2.333-1.105-5.974,0.899-9.205c0.852-1.685,2.392-2.649,3.67-3.547l2.004-0.915l0.52-0.221l0.246-0.096l0.821-0.169
			l0.088-0.023l0.746-0.086c0.617-0.22,3-0.069,4.644,0.261c1.191,0.405,2.516,0.731,3.573,1.27
			c4.255,2.124,8.141,4.51,11.104,9.017c1.063,1.437,2.322,3.778,3.285,6.065c0.842,2.232,1.421,4.574,1.633,7.021
			c0.904,10.002-6.294,19.739-16.011,21.413c-2.379,0.369-5.061,0.28-7.249-0.432c-0.692-0.139-2.301-0.774-3.451-1.446
			c-1.135-0.707-2.239-1.635-3.118-2.896c-1.773-2.5-2.264-6.588,0.496-9.486c1.388-1.456,3.756-2.085,5.605-1.606
			c1.759,0.47,2.986,1.431,3.772,2.323l0.618,0.698c0.21,0.313-0.056-0.197,0.549,0.779l0.142,0.283l0.574,1.141
			c0.392,0.697,0.78,1.481,0.996,2.845c0.69,2.544,0.326,4.501,0.055,6.447c-1.026,3.714-2.734,7.032-5.256,9.361
			c-2.33,2.505-5.252,4.159-8.156,5.128c-3.387,0.888-5.401,0.935-8.393,0.592c-5.365-0.578-9.273-2.173-12.644-3.417
			c-6.576-2.724-9.948-4.943-9.948-4.943s3.766,1.512,10.495,3.29c3.315,0.808,7.64,1.837,12.066,1.744
			c4.542,0.16,9.556-1.717,12.858-5.78c1.82-1.889,2.789-4.52,3.327-7.026c0.067-1.296,0.12-2.624-0.17-3.358
			c0.104-0.354-0.255-1.078-0.767-1.833l-0.662-1.099l-0.167-0.282c0.527,0.773,0.067,0.15,0.15,0.274l-0.287-0.239
			c-0.348-0.392-0.639-0.372-0.565-0.377c0.122,0.138,0.654,0.016,0.787-0.16c0.257-0.214,0.102,0.046,0.472,0.427
			c0.686,0.88,4.103,1.958,6.432,1.311c5.359-1.125,9.467-7.108,8.838-13.004c-0.144-1.501-0.536-2.996-1.118-4.504
			c-0.631-1.346-1.158-2.587-2.482-4.369c-1.36-2.307-4.594-4.399-7.452-5.751c-0.733-0.401-1.399-0.5-2.07-0.787
			c-0.347,0.131,0.05-0.405-1.316-0.126l-0.754,0.085l-0.081-0.002c0.278-0.058-0.784,0.164,0.615-0.141l-0.076,0.044l-0.186,0.102
			c-0.248,0.11-0.481,0.208-0.748,0.293c-0.226,0.258-0.65,0.335-0.587,0.523c-0.649,0.11,0.078,3.844,1.954,6.593
			c1.802,2.922,4.14,5.781,6.607,8.213c1.438,1.26,2.122,2.058,3.516,2.746c1.496,0.42,2.896,1.194,4.425,1.443
			c6.102,1.122,12.623-0.735,17.299-4.499c4.576-3.438,7.561-9.346,8.232-14.608c0.673-5.486-0.433-10.68-1.854-15.101
			c-0.938-2.119-1.878-4.126-2.921-5.868c-1.236-1.588-2.265-3.227-3.424-4.446c-1.261-1.138-2.372-2.16-3.347-3.058
			c-1.019-0.89-2.145-1.314-2.924-1.831C239.436,126.713,238.565,126.217,238.565,126.217z"/>
	</g>
</g>
</svg>
